M48
; DRILL file {KiCad (6.0.4)} date Tue Nov  1 18:45:12 2022
; FORMAT={-:-/ absolute / inch / decimal}
; #@! TF.CreationDate,2022-11-01T18:45:12-05:00
; #@! TF.GenerationSoftware,Kicad,Pcbnew,(6.0.4)
; #@! TF.FileFunction,Plated,1,2,PTH
FMAT,2
INCH
; #@! TA.AperFunction,Plated,PTH,ViaDrill
T1C0.0157
; #@! TA.AperFunction,Plated,PTH,ComponentDrill
T2C0.0315
; #@! TA.AperFunction,Plated,PTH,ComponentDrill
T3C0.0374
; #@! TA.AperFunction,Plated,PTH,ComponentDrill
T4C0.0394
; #@! TA.AperFunction,Plated,PTH,ComponentDrill
T5C0.0433
; #@! TA.AperFunction,Plated,PTH,ComponentDrill
T6C0.0906
%
G90
G05
T1
X5.43Y-2.65
X5.67Y-2.66
X5.86Y-2.66
X6.28Y-2.99
X6.6996Y-3.6004
X6.77Y-3.92
X6.82Y-3.31
T2
X4.29Y-2.2006
X4.29Y-2.2794
X4.29Y-2.51
X4.29Y-2.5887
X4.5696Y-2.73
X4.5696Y-2.83
X4.5696Y-3.08
X4.5696Y-3.18
X4.5696Y-3.43
X4.5696Y-3.53
X4.5696Y-3.78
X4.5696Y-3.88
X4.5696Y-4.13
X4.5696Y-4.23
X4.5696Y-4.4802
X4.5696Y-4.5802
X4.5696Y-4.83
X4.5696Y-4.93
X4.5696Y-5.1818
X4.5696Y-5.2818
X4.61Y-2.3306
X4.61Y-2.4094
X4.8696Y-2.73
X4.8696Y-2.83
X4.8696Y-3.08
X4.8696Y-3.18
X4.8696Y-3.43
X4.8696Y-3.53
X4.8696Y-3.78
X4.8696Y-3.88
X4.8696Y-4.13
X4.8696Y-4.23
X4.8696Y-4.4802
X4.8696Y-4.5802
X4.8696Y-4.83
X4.8696Y-4.93
X4.8696Y-5.1818
X4.8696Y-5.2818
T3
X5.7622Y-2.211
X5.8508Y-4.9328
X5.8508Y-5.0115
X5.8606Y-2.211
X5.9394Y-2.211
X5.9492Y-4.9328
X5.9492Y-5.0115
X6.0378Y-2.211
X6.6508Y-2.1885
X6.6508Y-2.2672
X6.6508Y-4.9328
X6.6508Y-5.0115
X6.7492Y-2.1885
X6.7492Y-2.2672
X6.7492Y-4.9328
X6.7492Y-5.0115
X7.4508Y-2.1885
X7.4508Y-2.2672
X7.4508Y-4.9328
X7.4508Y-5.0115
X7.5492Y-2.1885
X7.5492Y-2.2672
X7.5492Y-4.9328
X7.5492Y-5.0115
X8.0328Y-2.7508
X8.0328Y-2.8492
X8.0328Y-3.5508
X8.0328Y-3.6492
X8.0328Y-4.3508
X8.0328Y-4.4492
X8.1115Y-2.7508
X8.1115Y-2.8492
X8.1115Y-3.5508
X8.1115Y-3.6492
X8.1115Y-4.3508
X8.1115Y-4.4492
T4
X4.23Y-3.44
X4.23Y-3.54
X4.23Y-3.64
X4.23Y-3.74
X4.23Y-3.84
X4.23Y-3.94
X4.23Y-4.04
X4.23Y-4.14
X4.23Y-4.24
X4.23Y-4.34
X4.23Y-4.44
X4.23Y-4.54
X4.23Y-4.64
X4.23Y-4.74
X4.23Y-4.84
X4.23Y-4.94
X4.9202Y-2.0624
X4.9202Y-2.1624
X5.0202Y-2.0624
X5.0202Y-2.1624
X5.1202Y-2.0624
X5.1202Y-2.1624
X5.2202Y-2.0624
X5.2202Y-2.1624
X5.3202Y-2.0624
X5.3202Y-2.1624
X6.4169Y-3.27
X6.82Y-3.22
X6.88Y-2.97
X7.12Y-4.03
T5
X4.0172Y-2.92
X4.0172Y-3.02
X4.0172Y-3.12
X4.02Y-2.3
X4.02Y-2.4
X4.02Y-2.5
T6
X5.6413Y-2.1043
X5.6638Y-5.1241
X6.1362Y-5.1241
X6.1587Y-2.1043
X6.4638Y-2.0759
X6.4638Y-5.1241
X6.9362Y-2.0759
X6.9362Y-5.1241
X7.2638Y-2.0759
X7.2638Y-5.1241
X7.7362Y-2.0759
X7.7362Y-5.1241
X8.2241Y-2.5638
X8.2241Y-3.0362
X8.2241Y-3.3638
X8.2241Y-3.8362
X8.2241Y-4.1638
X8.2241Y-4.6362
T4
G00X4.12Y-1.7929
M15
G01X4.12Y-1.8717
M16
G05
G00X4.1987Y-2.0173
M15
G01X4.2775Y-2.0173
M16
G05
G00X4.3562Y-1.7929
M15
G01X4.3562Y-1.8717
M16
G05
T0
M30
