%TF.GenerationSoftware,KiCad,Pcbnew,(6.0.4)*%
%TF.CreationDate,2022-11-01T18:45:11-05:00*%
%TF.ProjectId,RaspPi_RemoteClusterController,52617370-5069-45f5-9265-6d6f7465436c,rev?*%
%TF.SameCoordinates,Original*%
%TF.FileFunction,Copper,L1,Top*%
%TF.FilePolarity,Positive*%
%FSLAX46Y46*%
G04 Gerber Fmt 4.6, Leading zero omitted, Abs format (unit mm)*
G04 Created by KiCad (PCBNEW (6.0.4)) date 2022-11-01 18:45:11*
%MOMM*%
%LPD*%
G01*
G04 APERTURE LIST*
G04 Aperture macros list*
%AMRoundRect*
0 Rectangle with rounded corners*
0 $1 Rounding radius*
0 $2 $3 $4 $5 $6 $7 $8 $9 X,Y pos of 4 corners*
0 Add a 4 corners polygon primitive as box body*
4,1,4,$2,$3,$4,$5,$6,$7,$8,$9,$2,$3,0*
0 Add four circle primitives for the rounded corners*
1,1,$1+$1,$2,$3*
1,1,$1+$1,$4,$5*
1,1,$1+$1,$6,$7*
1,1,$1+$1,$8,$9*
0 Add four rect primitives between the rounded corners*
20,1,$1+$1,$2,$3,$4,$5,0*
20,1,$1+$1,$4,$5,$6,$7,0*
20,1,$1+$1,$6,$7,$8,$9,0*
20,1,$1+$1,$8,$9,$2,$3,0*%
%AMFreePoly0*
4,1,14,0.340806,0.106694,0.394194,0.053306,0.412500,0.009112,0.412500,-0.062500,0.394194,-0.106694,0.350000,-0.125000,-0.350000,-0.125000,-0.394194,-0.106694,-0.412500,-0.062500,-0.412500,0.062500,-0.394194,0.106694,-0.350000,0.125000,0.296612,0.125000,0.340806,0.106694,0.340806,0.106694,$1*%
%AMFreePoly1*
4,1,14,0.394194,0.106694,0.412500,0.062500,0.412500,-0.009112,0.394194,-0.053306,0.340806,-0.106694,0.296612,-0.125000,-0.350000,-0.125000,-0.394194,-0.106694,-0.412500,-0.062500,-0.412500,0.062500,-0.394194,0.106694,-0.350000,0.125000,0.350000,0.125000,0.394194,0.106694,0.394194,0.106694,$1*%
%AMFreePoly2*
4,1,14,0.106694,0.394194,0.125000,0.350000,0.125000,-0.350000,0.106694,-0.394194,0.062500,-0.412500,-0.062500,-0.412500,-0.106694,-0.394194,-0.125000,-0.350000,-0.125000,0.296612,-0.106694,0.340806,-0.053306,0.394194,-0.009112,0.412500,0.062500,0.412500,0.106694,0.394194,0.106694,0.394194,$1*%
%AMFreePoly3*
4,1,14,0.053306,0.394194,0.106694,0.340806,0.125000,0.296612,0.125000,-0.350000,0.106694,-0.394194,0.062500,-0.412500,-0.062500,-0.412500,-0.106694,-0.394194,-0.125000,-0.350000,-0.125000,0.350000,-0.106694,0.394194,-0.062500,0.412500,0.009112,0.412500,0.053306,0.394194,0.053306,0.394194,$1*%
%AMFreePoly4*
4,1,14,0.394194,0.106694,0.412500,0.062500,0.412500,-0.062500,0.394194,-0.106694,0.350000,-0.125000,-0.296612,-0.125000,-0.340806,-0.106694,-0.394194,-0.053306,-0.412500,-0.009112,-0.412500,0.062500,-0.394194,0.106694,-0.350000,0.125000,0.350000,0.125000,0.394194,0.106694,0.394194,0.106694,$1*%
%AMFreePoly5*
4,1,14,0.394194,0.106694,0.412500,0.062500,0.412500,-0.062500,0.394194,-0.106694,0.350000,-0.125000,-0.350000,-0.125000,-0.394194,-0.106694,-0.412500,-0.062500,-0.412500,0.009112,-0.394194,0.053306,-0.340806,0.106694,-0.296612,0.125000,0.350000,0.125000,0.394194,0.106694,0.394194,0.106694,$1*%
%AMFreePoly6*
4,1,14,0.106694,0.394194,0.125000,0.350000,0.125000,-0.296612,0.106694,-0.340806,0.053306,-0.394194,0.009112,-0.412500,-0.062500,-0.412500,-0.106694,-0.394194,-0.125000,-0.350000,-0.125000,0.350000,-0.106694,0.394194,-0.062500,0.412500,0.062500,0.412500,0.106694,0.394194,0.106694,0.394194,$1*%
%AMFreePoly7*
4,1,14,0.106694,0.394194,0.125000,0.350000,0.125000,-0.350000,0.106694,-0.394194,0.062500,-0.412500,-0.009112,-0.412500,-0.053306,-0.394194,-0.106694,-0.340806,-0.125000,-0.296612,-0.125000,0.350000,-0.106694,0.394194,-0.062500,0.412500,0.062500,0.412500,0.106694,0.394194,0.106694,0.394194,$1*%
G04 Aperture macros list end*
%TA.AperFunction,ComponentPad*%
%ADD10C,1.600000*%
%TD*%
%TA.AperFunction,ComponentPad*%
%ADD11R,1.600000X1.600000*%
%TD*%
%TA.AperFunction,ComponentPad*%
%ADD12C,4.000000*%
%TD*%
%TA.AperFunction,ComponentPad*%
%ADD13O,1.600000X1.600000*%
%TD*%
%TA.AperFunction,ComponentPad*%
%ADD14R,1.700000X1.700000*%
%TD*%
%TA.AperFunction,SMDPad,CuDef*%
%ADD15RoundRect,0.250000X0.350000X0.450000X-0.350000X0.450000X-0.350000X-0.450000X0.350000X-0.450000X0*%
%TD*%
%TA.AperFunction,SMDPad,CuDef*%
%ADD16RoundRect,0.237500X0.237500X-0.300000X0.237500X0.300000X-0.237500X0.300000X-0.237500X-0.300000X0*%
%TD*%
%TA.AperFunction,ComponentPad*%
%ADD17O,1.700000X1.700000*%
%TD*%
%TA.AperFunction,SMDPad,CuDef*%
%ADD18RoundRect,0.250000X-0.350000X-0.450000X0.350000X-0.450000X0.350000X0.450000X-0.350000X0.450000X0*%
%TD*%
%TA.AperFunction,SMDPad,CuDef*%
%ADD19R,1.000000X1.500000*%
%TD*%
%TA.AperFunction,ComponentPad*%
%ADD20R,2.000000X1.905000*%
%TD*%
%TA.AperFunction,ComponentPad*%
%ADD21O,2.000000X1.905000*%
%TD*%
%TA.AperFunction,ComponentPad*%
%ADD22R,1.600000X1.500000*%
%TD*%
%TA.AperFunction,ComponentPad*%
%ADD23C,3.000000*%
%TD*%
%TA.AperFunction,SMDPad,CuDef*%
%ADD24FreePoly0,270.000000*%
%TD*%
%TA.AperFunction,SMDPad,CuDef*%
%ADD25RoundRect,0.062500X-0.062500X0.350000X-0.062500X-0.350000X0.062500X-0.350000X0.062500X0.350000X0*%
%TD*%
%TA.AperFunction,SMDPad,CuDef*%
%ADD26FreePoly1,270.000000*%
%TD*%
%TA.AperFunction,SMDPad,CuDef*%
%ADD27FreePoly2,270.000000*%
%TD*%
%TA.AperFunction,SMDPad,CuDef*%
%ADD28RoundRect,0.062500X-0.350000X0.062500X-0.350000X-0.062500X0.350000X-0.062500X0.350000X0.062500X0*%
%TD*%
%TA.AperFunction,SMDPad,CuDef*%
%ADD29FreePoly3,270.000000*%
%TD*%
%TA.AperFunction,SMDPad,CuDef*%
%ADD30FreePoly4,270.000000*%
%TD*%
%TA.AperFunction,SMDPad,CuDef*%
%ADD31FreePoly5,270.000000*%
%TD*%
%TA.AperFunction,SMDPad,CuDef*%
%ADD32FreePoly6,270.000000*%
%TD*%
%TA.AperFunction,SMDPad,CuDef*%
%ADD33FreePoly7,270.000000*%
%TD*%
%TA.AperFunction,SMDPad,CuDef*%
%ADD34R,3.100000X3.100000*%
%TD*%
%TA.AperFunction,SMDPad,CuDef*%
%ADD35RoundRect,0.237500X-0.237500X0.300000X-0.237500X-0.300000X0.237500X-0.300000X0.237500X0.300000X0*%
%TD*%
%TA.AperFunction,SMDPad,CuDef*%
%ADD36RoundRect,0.150000X0.875000X0.150000X-0.875000X0.150000X-0.875000X-0.150000X0.875000X-0.150000X0*%
%TD*%
%TA.AperFunction,ComponentPad*%
%ADD37R,3.500000X3.500000*%
%TD*%
%TA.AperFunction,ComponentPad*%
%ADD38RoundRect,0.750000X-0.750000X-1.000000X0.750000X-1.000000X0.750000X1.000000X-0.750000X1.000000X0*%
%TD*%
%TA.AperFunction,ComponentPad*%
%ADD39RoundRect,0.875000X-0.875000X-0.875000X0.875000X-0.875000X0.875000X0.875000X-0.875000X0.875000X0*%
%TD*%
%TA.AperFunction,ViaPad*%
%ADD40C,0.800000*%
%TD*%
%TA.AperFunction,Conductor*%
%ADD41C,0.400000*%
%TD*%
%TA.AperFunction,Conductor*%
%ADD42C,0.250000*%
%TD*%
%TA.AperFunction,Conductor*%
%ADD43C,0.261112*%
%TD*%
G04 APERTURE END LIST*
D10*
%TO.P,C3,1*%
%TO.N,+3V3*%
X117094000Y-61198000D03*
%TO.P,C3,2*%
%TO.N,GND*%
X117094000Y-59198000D03*
%TD*%
%TO.P,C2,1*%
%TO.N,+5V*%
X108966000Y-63754000D03*
%TO.P,C2,2*%
%TO.N,GND*%
X108966000Y-65754000D03*
%TD*%
%TO.P,C1,1*%
%TO.N,+6V*%
X108966000Y-55896000D03*
%TO.P,C1,2*%
%TO.N,GND*%
X108966000Y-57896000D03*
%TD*%
D11*
%TO.P,J11,1,VBUS*%
%TO.N,unconnected-(J11-Pad1)*%
X151110000Y-125292500D03*
D10*
%TO.P,J11,2,D-*%
%TO.N,/D0-*%
X148610000Y-125292500D03*
%TO.P,J11,3,D+*%
%TO.N,/D0+*%
X148610000Y-127292500D03*
%TO.P,J11,4,GND*%
%TO.N,GND*%
X151110000Y-127292500D03*
D12*
%TO.P,J11,5,Shield*%
X143860000Y-130152500D03*
X155860000Y-130152500D03*
%TD*%
D11*
%TO.P,J6,1,VBUS*%
%TO.N,unconnected-(J6-Pad1)*%
X204032500Y-69870000D03*
D10*
%TO.P,J6,2,D-*%
%TO.N,/D5-*%
X204032500Y-72370000D03*
%TO.P,J6,3,D+*%
%TO.N,/D5+*%
X206032500Y-72370000D03*
%TO.P,J6,4,GND*%
%TO.N,GND*%
X206032500Y-69870000D03*
D12*
%TO.P,J6,5,Shield*%
X208892500Y-65120000D03*
X208892500Y-77120000D03*
%TD*%
D11*
%TO.P,U11,1*%
%TO.N,Net-(R9-Pad2)*%
X123688000Y-80772000D03*
D13*
%TO.P,U11,2*%
%TO.N,GND*%
X123688000Y-78232000D03*
%TO.P,U11,3*%
%TO.N,Net-(J12-Pad14)*%
X116068000Y-78232000D03*
%TO.P,U11,4*%
%TO.N,Net-(J12-Pad13)*%
X116068000Y-80772000D03*
%TD*%
D14*
%TO.P,JU1,1,Pin_1*%
%TO.N,Net-(JU1-Pad1)*%
X173228000Y-81788000D03*
%TD*%
%TO.P,JU4,1,Pin_1*%
%TO.N,+3V3*%
X174752000Y-75438000D03*
%TD*%
D15*
%TO.P,R1,1*%
%TO.N,+3V3*%
X137144000Y-58420000D03*
%TO.P,R1,2*%
%TO.N,Net-(J2-Pad10)*%
X135144000Y-58420000D03*
%TD*%
D16*
%TO.P,C4,1*%
%TO.N,+3V3*%
X172310000Y-87202500D03*
%TO.P,C4,2*%
%TO.N,GND*%
X172310000Y-85477500D03*
%TD*%
D14*
%TO.P,J2,1,Pin_1*%
%TO.N,+5V*%
X124973000Y-54926000D03*
D17*
%TO.P,J2,2,Pin_2*%
X124973000Y-52386000D03*
%TO.P,J2,3,Pin_3*%
%TO.N,+3V3*%
X127513000Y-54926000D03*
%TO.P,J2,4,Pin_4*%
X127513000Y-52386000D03*
%TO.P,J2,5,Pin_5*%
%TO.N,GND*%
X130053000Y-54926000D03*
%TO.P,J2,6,Pin_6*%
X130053000Y-52386000D03*
%TO.P,J2,7,Pin_7*%
%TO.N,Net-(J2-Pad7)*%
X132593000Y-54926000D03*
%TO.P,J2,8,Pin_8*%
X132593000Y-52386000D03*
%TO.P,J2,9,Pin_9*%
%TO.N,Net-(J2-Pad10)*%
X135133000Y-54926000D03*
%TO.P,J2,10,Pin_10*%
X135133000Y-52386000D03*
%TD*%
D14*
%TO.P,JU2,1,Pin_1*%
%TO.N,Net-(JU2-Pad1)*%
X162990000Y-83058000D03*
%TD*%
D11*
%TO.P,U9,1*%
%TO.N,Net-(R7-Pad2)*%
X123688000Y-98552000D03*
D13*
%TO.P,U9,2*%
%TO.N,GND*%
X123688000Y-96012000D03*
%TO.P,U9,3*%
%TO.N,Net-(J12-Pad10)*%
X116068000Y-96012000D03*
%TO.P,U9,4*%
%TO.N,Net-(J12-Pad9)*%
X116068000Y-98552000D03*
%TD*%
D11*
%TO.P,J9,1,VBUS*%
%TO.N,unconnected-(J9-Pad1)*%
X191750000Y-125292500D03*
D10*
%TO.P,J9,2,D-*%
%TO.N,/D2-*%
X189250000Y-125292500D03*
%TO.P,J9,3,D+*%
%TO.N,/D2+*%
X189250000Y-127292500D03*
%TO.P,J9,4,GND*%
%TO.N,GND*%
X191750000Y-127292500D03*
D12*
%TO.P,J9,5,Shield*%
X184500000Y-130152500D03*
X196500000Y-130152500D03*
%TD*%
D11*
%TO.P,J4,1,VBUS*%
%TO.N,unconnected-(J4-Pad1)*%
X168930000Y-57587500D03*
D10*
%TO.P,J4,2,D-*%
%TO.N,/D7-*%
X171430000Y-57587500D03*
%TO.P,J4,3,D+*%
%TO.N,/D7+*%
X171430000Y-55587500D03*
%TO.P,J4,4,GND*%
%TO.N,GND*%
X168930000Y-55587500D03*
D12*
%TO.P,J4,5,Shield*%
X176180000Y-52727500D03*
X164180000Y-52727500D03*
%TD*%
D18*
%TO.P,R2,1*%
%TO.N,+3V3*%
X130572000Y-58420000D03*
%TO.P,R2,2*%
%TO.N,Net-(J2-Pad7)*%
X132572000Y-58420000D03*
%TD*%
D19*
%TO.P,JP1,1,A*%
%TO.N,+3V3*%
X145004000Y-65278000D03*
%TO.P,JP1,2,C*%
%TO.N,Net-(JP1-Pad2)*%
X146304000Y-65278000D03*
%TO.P,JP1,3,B*%
%TO.N,GND*%
X147604000Y-65278000D03*
%TD*%
D20*
%TO.P,U2,1,GND*%
%TO.N,GND*%
X102037000Y-79248000D03*
D21*
%TO.P,U2,2,VO*%
%TO.N,+3V3*%
X102037000Y-76708000D03*
%TO.P,U2,3,VI*%
%TO.N,+5V*%
X102037000Y-74168000D03*
%TD*%
D11*
%TO.P,U8,1*%
%TO.N,Net-(R6-Pad2)*%
X123688000Y-107442000D03*
D13*
%TO.P,U8,2*%
%TO.N,GND*%
X123688000Y-104902000D03*
%TO.P,U8,3*%
%TO.N,Net-(J12-Pad8)*%
X116068000Y-104902000D03*
%TO.P,U8,4*%
%TO.N,Net-(J12-Pad7)*%
X116068000Y-107442000D03*
%TD*%
D15*
%TO.P,R8,1*%
%TO.N,Net-(R8-Pad1)*%
X129524000Y-89662000D03*
%TO.P,R8,2*%
%TO.N,Net-(R8-Pad2)*%
X127524000Y-89662000D03*
%TD*%
D14*
%TO.P,JU3,1,Pin_1*%
%TO.N,Net-(C5-Pad1)*%
X180848000Y-102362000D03*
%TD*%
D15*
%TO.P,R5,1*%
%TO.N,Net-(R5-Pad1)*%
X129524000Y-116337000D03*
%TO.P,R5,2*%
%TO.N,Net-(R5-Pad2)*%
X127524000Y-116337000D03*
%TD*%
%TO.P,R6,1*%
%TO.N,Net-(R6-Pad1)*%
X129524000Y-107442000D03*
%TO.P,R6,2*%
%TO.N,Net-(R6-Pad2)*%
X127524000Y-107442000D03*
%TD*%
D14*
%TO.P,J12,1,Pin_1*%
%TO.N,Net-(J12-Pad1)*%
X107442000Y-125476000D03*
D17*
%TO.P,J12,2,Pin_2*%
%TO.N,Net-(J12-Pad2)*%
X107442000Y-122936000D03*
%TO.P,J12,3,Pin_3*%
%TO.N,Net-(J12-Pad3)*%
X107442000Y-120396000D03*
%TO.P,J12,4,Pin_4*%
%TO.N,Net-(J12-Pad4)*%
X107442000Y-117856000D03*
%TO.P,J12,5,Pin_5*%
%TO.N,Net-(J12-Pad5)*%
X107442000Y-115316000D03*
%TO.P,J12,6,Pin_6*%
%TO.N,Net-(J12-Pad6)*%
X107442000Y-112776000D03*
%TO.P,J12,7,Pin_7*%
%TO.N,Net-(J12-Pad7)*%
X107442000Y-110236000D03*
%TO.P,J12,8,Pin_8*%
%TO.N,Net-(J12-Pad8)*%
X107442000Y-107696000D03*
%TO.P,J12,9,Pin_9*%
%TO.N,Net-(J12-Pad9)*%
X107442000Y-105156000D03*
%TO.P,J12,10,Pin_10*%
%TO.N,Net-(J12-Pad10)*%
X107442000Y-102616000D03*
%TO.P,J12,11,Pin_11*%
%TO.N,Net-(J12-Pad11)*%
X107442000Y-100076000D03*
%TO.P,J12,12,Pin_12*%
%TO.N,Net-(J12-Pad12)*%
X107442000Y-97536000D03*
%TO.P,J12,13,Pin_13*%
%TO.N,Net-(J12-Pad13)*%
X107442000Y-94996000D03*
%TO.P,J12,14,Pin_14*%
%TO.N,Net-(J12-Pad14)*%
X107442000Y-92456000D03*
%TO.P,J12,15,Pin_15*%
%TO.N,Net-(J12-Pad15)*%
X107442000Y-89916000D03*
%TO.P,J12,16,Pin_16*%
%TO.N,Net-(J12-Pad16)*%
X107442000Y-87376000D03*
%TD*%
D19*
%TO.P,JP3,1,A*%
%TO.N,+3V3*%
X135352000Y-65278000D03*
%TO.P,JP3,2,C*%
%TO.N,Net-(JP3-Pad2)*%
X136652000Y-65278000D03*
%TO.P,JP3,3,B*%
%TO.N,GND*%
X137952000Y-65278000D03*
%TD*%
D11*
%TO.P,J7,1,VBUS*%
%TO.N,unconnected-(J7-Pad1)*%
X204032500Y-90190000D03*
D10*
%TO.P,J7,2,D-*%
%TO.N,/D4-*%
X204032500Y-92690000D03*
%TO.P,J7,3,D+*%
%TO.N,/D4+*%
X206032500Y-92690000D03*
%TO.P,J7,4,GND*%
%TO.N,GND*%
X206032500Y-90190000D03*
D12*
%TO.P,J7,5,Shield*%
X208892500Y-85440000D03*
X208892500Y-97440000D03*
%TD*%
D22*
%TO.P,J3,1,VBUS*%
%TO.N,unconnected-(J3-Pad1)*%
X153360000Y-56160000D03*
D10*
%TO.P,J3,2,D-*%
%TO.N,/COM-*%
X150860000Y-56160000D03*
%TO.P,J3,3,D+*%
%TO.N,/COM+*%
X148860000Y-56160000D03*
%TO.P,J3,4,GND*%
%TO.N,GND*%
X146360000Y-56160000D03*
D23*
%TO.P,J3,5,Shield*%
X156430000Y-53450000D03*
X143290000Y-53450000D03*
%TD*%
D15*
%TO.P,R3,1*%
%TO.N,Net-(R3-Pad1)*%
X129524000Y-134158000D03*
%TO.P,R3,2*%
%TO.N,Net-(R3-Pad2)*%
X127524000Y-134158000D03*
%TD*%
D11*
%TO.P,J8,1,VBUS*%
%TO.N,unconnected-(J8-Pad1)*%
X204032500Y-110510000D03*
D10*
%TO.P,J8,2,D-*%
%TO.N,/D3-*%
X204032500Y-113010000D03*
%TO.P,J8,3,D+*%
%TO.N,/D3+*%
X206032500Y-113010000D03*
%TO.P,J8,4,GND*%
%TO.N,GND*%
X206032500Y-110510000D03*
D12*
%TO.P,J8,5,Shield*%
X208892500Y-105760000D03*
X208892500Y-117760000D03*
%TD*%
D11*
%TO.P,U6,1*%
%TO.N,Net-(R4-Pad2)*%
X123688000Y-125222000D03*
D13*
%TO.P,U6,2*%
%TO.N,GND*%
X123688000Y-122682000D03*
%TO.P,U6,3*%
%TO.N,Net-(J12-Pad4)*%
X116068000Y-122682000D03*
%TO.P,U6,4*%
%TO.N,Net-(J12-Pad3)*%
X116068000Y-125222000D03*
%TD*%
D24*
%TO.P,U4,1,GND*%
%TO.N,GND*%
X171930000Y-89002500D03*
D25*
%TO.P,U4,2,+3V3*%
%TO.N,+3V3*%
X171430000Y-89002500D03*
%TO.P,U4,3,EN*%
%TO.N,Net-(JU1-Pad1)*%
X170930000Y-89002500D03*
%TO.P,U4,4,COM0-*%
%TO.N,/COM-*%
X170430000Y-89002500D03*
%TO.P,U4,5,COM+*%
%TO.N,/COM+*%
X169930000Y-89002500D03*
%TO.P,U4,6,C0*%
%TO.N,Net-(U3-Pad3)*%
X169430000Y-89002500D03*
%TO.P,U4,7,C1*%
%TO.N,Net-(U3-Pad2)*%
X168930000Y-89002500D03*
D26*
%TO.P,U4,8,C2*%
%TO.N,Net-(U3-Pad1)*%
X168430000Y-89002500D03*
D27*
%TO.P,U4,9,D0-*%
%TO.N,/D0-*%
X167742500Y-89690000D03*
D28*
%TO.P,U4,10,D0+*%
%TO.N,/D0+*%
X167742500Y-90190000D03*
%TO.P,U4,11,GND*%
%TO.N,GND*%
X167742500Y-90690000D03*
%TO.P,U4,12,D1-*%
%TO.N,/D1-*%
X167742500Y-91190000D03*
%TO.P,U4,13,D1+*%
%TO.N,/D1+*%
X167742500Y-91690000D03*
%TO.P,U4,14,GND*%
%TO.N,GND*%
X167742500Y-92190000D03*
%TO.P,U4,15,D2-*%
%TO.N,/D2-*%
X167742500Y-92690000D03*
D29*
%TO.P,U4,16,D2+*%
%TO.N,/D2+*%
X167742500Y-93190000D03*
D30*
%TO.P,U4,17,GND*%
%TO.N,GND*%
X168430000Y-93877500D03*
D25*
%TO.P,U4,18,D3-*%
%TO.N,/D3-*%
X168930000Y-93877500D03*
%TO.P,U4,19,D3+*%
%TO.N,/D3+*%
X169430000Y-93877500D03*
%TO.P,U4,20,+3V3*%
%TO.N,Net-(C5-Pad1)*%
X169930000Y-93877500D03*
%TO.P,U4,21,GND*%
%TO.N,GND*%
X170430000Y-93877500D03*
%TO.P,U4,22,D4+*%
%TO.N,/D4+*%
X170930000Y-93877500D03*
%TO.P,U4,23,D4-*%
%TO.N,/D4-*%
X171430000Y-93877500D03*
D31*
%TO.P,U4,24,GND*%
%TO.N,GND*%
X171930000Y-93877500D03*
D32*
%TO.P,U4,25,D5+*%
%TO.N,/D5+*%
X172617500Y-93190000D03*
D28*
%TO.P,U4,26,D5-*%
%TO.N,/D5-*%
X172617500Y-92690000D03*
%TO.P,U4,27,GND*%
%TO.N,GND*%
X172617500Y-92190000D03*
%TO.P,U4,28,D6+*%
%TO.N,/D6+*%
X172617500Y-91690000D03*
%TO.P,U4,29,D6-*%
%TO.N,/D6-*%
X172617500Y-91190000D03*
%TO.P,U4,30,GND*%
%TO.N,GND*%
X172617500Y-90690000D03*
%TO.P,U4,31,D7+*%
%TO.N,/D7+*%
X172617500Y-90190000D03*
D33*
%TO.P,U4,32,D7-*%
%TO.N,/D7-*%
X172617500Y-89690000D03*
D34*
%TO.P,U4,33,EP*%
%TO.N,GND*%
X170180000Y-91440000D03*
%TD*%
D11*
%TO.P,U7,1*%
%TO.N,Net-(R5-Pad2)*%
X123688000Y-116337000D03*
D13*
%TO.P,U7,2*%
%TO.N,GND*%
X123688000Y-113797000D03*
%TO.P,U7,3*%
%TO.N,Net-(J12-Pad6)*%
X116068000Y-113797000D03*
%TO.P,U7,4*%
%TO.N,Net-(J12-Pad5)*%
X116068000Y-116337000D03*
%TD*%
D19*
%TO.P,JP2,1,A*%
%TO.N,+3V3*%
X140178000Y-65278000D03*
%TO.P,JP2,2,C*%
%TO.N,Net-(JP2-Pad2)*%
X141478000Y-65278000D03*
%TO.P,JP2,3,B*%
%TO.N,GND*%
X142778000Y-65278000D03*
%TD*%
D11*
%TO.P,J5,1,VBUS*%
%TO.N,unconnected-(J5-Pad1)*%
X189250000Y-57587500D03*
D10*
%TO.P,J5,2,D-*%
%TO.N,/D6-*%
X191750000Y-57587500D03*
%TO.P,J5,3,D+*%
%TO.N,/D6+*%
X191750000Y-55587500D03*
%TO.P,J5,4,GND*%
%TO.N,GND*%
X189250000Y-55587500D03*
D12*
%TO.P,J5,5,Shield*%
X184500000Y-52727500D03*
X196500000Y-52727500D03*
%TD*%
D35*
%TO.P,C5,1*%
%TO.N,Net-(C5-Pad1)*%
X170710000Y-96470000D03*
%TO.P,C5,2*%
%TO.N,GND*%
X170710000Y-98195000D03*
%TD*%
D11*
%TO.P,U12,1*%
%TO.N,Net-(R10-Pad2)*%
X123688000Y-71882000D03*
D13*
%TO.P,U12,2*%
%TO.N,GND*%
X123688000Y-69342000D03*
%TO.P,U12,3*%
%TO.N,Net-(J12-Pad16)*%
X116068000Y-69342000D03*
%TO.P,U12,4*%
%TO.N,Net-(J12-Pad15)*%
X116068000Y-71882000D03*
%TD*%
D11*
%TO.P,U5,1*%
%TO.N,Net-(R3-Pad2)*%
X123688000Y-134158000D03*
D13*
%TO.P,U5,2*%
%TO.N,GND*%
X123688000Y-131618000D03*
%TO.P,U5,3*%
%TO.N,Net-(J12-Pad2)*%
X116068000Y-131618000D03*
%TO.P,U5,4*%
%TO.N,Net-(J12-Pad1)*%
X116068000Y-134158000D03*
%TD*%
D11*
%TO.P,U10,1*%
%TO.N,Net-(R8-Pad2)*%
X123688000Y-89662000D03*
D13*
%TO.P,U10,2*%
%TO.N,GND*%
X123688000Y-87122000D03*
%TO.P,U10,3*%
%TO.N,Net-(J12-Pad12)*%
X116068000Y-87122000D03*
%TO.P,U10,4*%
%TO.N,Net-(J12-Pad11)*%
X116068000Y-89662000D03*
%TD*%
D15*
%TO.P,R10,1*%
%TO.N,Net-(R10-Pad1)*%
X129524000Y-71882000D03*
%TO.P,R10,2*%
%TO.N,Net-(R10-Pad2)*%
X127524000Y-71882000D03*
%TD*%
%TO.P,R9,1*%
%TO.N,Net-(R9-Pad1)*%
X129524000Y-80772000D03*
%TO.P,R9,2*%
%TO.N,Net-(R9-Pad2)*%
X127524000Y-80772000D03*
%TD*%
%TO.P,R4,1*%
%TO.N,Net-(R4-Pad1)*%
X129524000Y-125222000D03*
%TO.P,R4,2*%
%TO.N,Net-(R4-Pad2)*%
X127524000Y-125222000D03*
%TD*%
D36*
%TO.P,U3,1,GPB0*%
%TO.N,Net-(U3-Pad1)*%
X156970000Y-87405000D03*
%TO.P,U3,2,GPB1*%
%TO.N,Net-(U3-Pad2)*%
X156970000Y-86135000D03*
%TO.P,U3,3,GPB2*%
%TO.N,Net-(U3-Pad3)*%
X156970000Y-84865000D03*
%TO.P,U3,4,GPB3*%
%TO.N,Net-(JU2-Pad1)*%
X156970000Y-83595000D03*
%TO.P,U3,5,GPB4*%
%TO.N,unconnected-(U3-Pad5)*%
X156970000Y-82325000D03*
%TO.P,U3,6,GPB5*%
%TO.N,unconnected-(U3-Pad6)*%
X156970000Y-81055000D03*
%TO.P,U3,7,GPB6*%
%TO.N,unconnected-(U3-Pad7)*%
X156970000Y-79785000D03*
%TO.P,U3,8,GPB7*%
%TO.N,unconnected-(U3-Pad8)*%
X156970000Y-78515000D03*
%TO.P,U3,9,VDD*%
%TO.N,+3V3*%
X156970000Y-77245000D03*
%TO.P,U3,10,VSS*%
%TO.N,GND*%
X156970000Y-75975000D03*
%TO.P,U3,11,NC*%
%TO.N,unconnected-(U3-Pad11)*%
X156970000Y-74705000D03*
%TO.P,U3,12,SCK*%
%TO.N,Net-(J2-Pad10)*%
X156970000Y-73435000D03*
%TO.P,U3,13,SDA*%
%TO.N,Net-(J2-Pad7)*%
X156970000Y-72165000D03*
%TO.P,U3,14,NC*%
%TO.N,unconnected-(U3-Pad14)*%
X156970000Y-70895000D03*
%TO.P,U3,15,A0*%
%TO.N,Net-(JP1-Pad2)*%
X147670000Y-70895000D03*
%TO.P,U3,16,A1*%
%TO.N,Net-(JP2-Pad2)*%
X147670000Y-72165000D03*
%TO.P,U3,17,A2*%
%TO.N,Net-(JP3-Pad2)*%
X147670000Y-73435000D03*
%TO.P,U3,18,~{RESET}*%
%TO.N,+3V3*%
X147670000Y-74705000D03*
%TO.P,U3,19,INTB*%
%TO.N,unconnected-(U3-Pad19)*%
X147670000Y-75975000D03*
%TO.P,U3,20,INTA*%
%TO.N,unconnected-(U3-Pad20)*%
X147670000Y-77245000D03*
%TO.P,U3,21,GPA0*%
%TO.N,Net-(R10-Pad1)*%
X147670000Y-78515000D03*
%TO.P,U3,22,GPA1*%
%TO.N,Net-(R9-Pad1)*%
X147670000Y-79785000D03*
%TO.P,U3,23,GPA2*%
%TO.N,Net-(R8-Pad1)*%
X147670000Y-81055000D03*
%TO.P,U3,24,GPA3*%
%TO.N,Net-(R7-Pad1)*%
X147670000Y-82325000D03*
%TO.P,U3,25,GPA4*%
%TO.N,Net-(R6-Pad1)*%
X147670000Y-83595000D03*
%TO.P,U3,26,GPA5*%
%TO.N,Net-(R5-Pad1)*%
X147670000Y-84865000D03*
%TO.P,U3,27,GPA6*%
%TO.N,Net-(R4-Pad1)*%
X147670000Y-86135000D03*
%TO.P,U3,28,GPA7*%
%TO.N,Net-(R3-Pad1)*%
X147670000Y-87405000D03*
%TD*%
D37*
%TO.P,J1,1*%
%TO.N,+6V*%
X110648000Y-46540500D03*
D38*
%TO.P,J1,2*%
%TO.N,GND*%
X104648000Y-46540500D03*
D39*
%TO.P,J1,3*%
%TO.N,N/C*%
X107648000Y-51240500D03*
%TD*%
D15*
%TO.P,R7,1*%
%TO.N,Net-(R7-Pad1)*%
X129524000Y-98552000D03*
%TO.P,R7,2*%
%TO.N,Net-(R7-Pad2)*%
X127524000Y-98552000D03*
%TD*%
D11*
%TO.P,J10,1,VBUS*%
%TO.N,unconnected-(J10-Pad1)*%
X171430000Y-125292500D03*
D10*
%TO.P,J10,2,D-*%
%TO.N,/D1-*%
X168930000Y-125292500D03*
%TO.P,J10,3,D+*%
%TO.N,/D1+*%
X168930000Y-127292500D03*
%TO.P,J10,4,GND*%
%TO.N,GND*%
X171430000Y-127292500D03*
D12*
%TO.P,J10,5,Shield*%
X176180000Y-130152500D03*
X164180000Y-130152500D03*
%TD*%
D20*
%TO.P,U1,1,GND*%
%TO.N,GND*%
X102108000Y-63500000D03*
D21*
%TO.P,U1,2,VO*%
%TO.N,+5V*%
X102108000Y-60960000D03*
%TO.P,U1,3,VI*%
%TO.N,+6V*%
X102108000Y-58420000D03*
%TD*%
D40*
%TO.N,GND*%
X148844000Y-67564000D03*
X173228000Y-84074000D03*
X159512000Y-75946000D03*
X170170000Y-91450000D03*
X137922000Y-67310000D03*
X144018000Y-67564000D03*
X171958000Y-99568000D03*
%TD*%
D41*
%TO.N,+3V3*%
X102037000Y-76708000D02*
X102037000Y-76255000D01*
X102037000Y-76255000D02*
X117094000Y-61198000D01*
%TO.N,+5V*%
X102037000Y-70683000D02*
X108966000Y-63754000D01*
X102037000Y-74168000D02*
X102037000Y-70683000D01*
X106172000Y-60960000D02*
X108966000Y-63754000D01*
X102108000Y-60960000D02*
X106172000Y-60960000D01*
%TO.N,+6V*%
X106442000Y-58420000D02*
X108966000Y-55896000D01*
X102108000Y-58420000D02*
X106442000Y-58420000D01*
%TO.N,+3V3*%
X121241000Y-61198000D02*
X127513000Y-54926000D01*
X117094000Y-61198000D02*
X121241000Y-61198000D01*
%TO.N,+5V*%
X124973000Y-54926000D02*
X124973000Y-52386000D01*
X117794000Y-54926000D02*
X124973000Y-54926000D01*
X108966000Y-63754000D02*
X117794000Y-54926000D01*
D42*
%TO.N,Net-(J12-Pad1)*%
X107442000Y-125532000D02*
X116068000Y-134158000D01*
X107442000Y-125476000D02*
X107442000Y-125532000D01*
%TO.N,Net-(J12-Pad2)*%
X116068000Y-131562000D02*
X116068000Y-131618000D01*
X107442000Y-122936000D02*
X116068000Y-131562000D01*
%TO.N,Net-(J12-Pad3)*%
X111242000Y-120396000D02*
X116068000Y-125222000D01*
X107442000Y-120396000D02*
X111242000Y-120396000D01*
%TO.N,Net-(J12-Pad4)*%
X111242000Y-117856000D02*
X116068000Y-122682000D01*
X107442000Y-117856000D02*
X111242000Y-117856000D01*
%TO.N,Net-(J12-Pad5)*%
X115047000Y-115316000D02*
X116068000Y-116337000D01*
X107442000Y-115316000D02*
X115047000Y-115316000D01*
%TO.N,Net-(J12-Pad6)*%
X108463000Y-113797000D02*
X116068000Y-113797000D01*
X107442000Y-112776000D02*
X108463000Y-113797000D01*
%TO.N,Net-(J12-Pad7)*%
X113274000Y-110236000D02*
X116068000Y-107442000D01*
X107442000Y-110236000D02*
X113274000Y-110236000D01*
%TO.N,Net-(J12-Pad8)*%
X113274000Y-107696000D02*
X116068000Y-104902000D01*
X107442000Y-107696000D02*
X113274000Y-107696000D01*
%TO.N,Net-(J12-Pad9)*%
X107442000Y-105156000D02*
X109464000Y-105156000D01*
X109464000Y-105156000D02*
X116068000Y-98552000D01*
%TO.N,Net-(J12-Pad10)*%
X109464000Y-102616000D02*
X116068000Y-96012000D01*
X107442000Y-102616000D02*
X109464000Y-102616000D01*
%TO.N,Net-(J12-Pad11)*%
X107442000Y-100076000D02*
X116068000Y-91450000D01*
X116068000Y-91450000D02*
X116068000Y-89662000D01*
%TO.N,Net-(J12-Pad12)*%
X116068000Y-88071700D02*
X116068000Y-87122000D01*
X107442000Y-96697700D02*
X116068000Y-88071700D01*
X107442000Y-97536000D02*
X107442000Y-96697700D01*
%TO.N,Net-(J12-Pad13)*%
X116068000Y-82814000D02*
X116068000Y-80772000D01*
X111760000Y-87122000D02*
X116068000Y-82814000D01*
X111760000Y-90678000D02*
X111760000Y-87122000D01*
X107442000Y-94996000D02*
X111760000Y-90678000D01*
%TO.N,Net-(J12-Pad14)*%
X110490000Y-82296000D02*
X114554000Y-78232000D01*
X110490000Y-89408000D02*
X110490000Y-82296000D01*
X107442000Y-92456000D02*
X110490000Y-89408000D01*
X114554000Y-78232000D02*
X116068000Y-78232000D01*
%TO.N,Net-(J12-Pad15)*%
X108966000Y-78984000D02*
X116068000Y-71882000D01*
X108966000Y-88392000D02*
X108966000Y-78984000D01*
X107442000Y-89916000D02*
X108966000Y-88392000D01*
%TO.N,Net-(J12-Pad16)*%
X107442000Y-77968000D02*
X116068000Y-69342000D01*
X107442000Y-87376000D02*
X107442000Y-77968000D01*
D41*
%TO.N,+6V*%
X110648000Y-54214000D02*
X108966000Y-55896000D01*
X110648000Y-46540500D02*
X110648000Y-54214000D01*
D42*
%TO.N,GND*%
X170180000Y-91212328D02*
X170180000Y-91440000D01*
X170710000Y-98320000D02*
X171958000Y-99568000D01*
X168430000Y-93877500D02*
X168430000Y-93417672D01*
X169430000Y-90690000D02*
X170180000Y-91440000D01*
X169430000Y-92190000D02*
X170170000Y-91450000D01*
X172617500Y-90690000D02*
X170930000Y-90690000D01*
X142778000Y-65278000D02*
X142778000Y-66324000D01*
X171930000Y-93877500D02*
X171930000Y-93408940D01*
X170180000Y-91658940D02*
X170180000Y-91440000D01*
X159483000Y-75975000D02*
X159512000Y-75946000D01*
X171930000Y-89002500D02*
X171930000Y-89462328D01*
X137952000Y-67280000D02*
X137922000Y-67310000D01*
X172310000Y-85477500D02*
X172310000Y-84992000D01*
X170180000Y-91667672D02*
X170180000Y-91440000D01*
X170170000Y-91450000D02*
X170180000Y-91440000D01*
X171930000Y-89462328D02*
X170180000Y-91212328D01*
X172310000Y-84992000D02*
X173228000Y-84074000D01*
X137952000Y-65278000D02*
X137952000Y-67280000D01*
X170430000Y-93877500D02*
X170430000Y-91690000D01*
X170710000Y-98195000D02*
X170710000Y-98320000D01*
X167742500Y-92190000D02*
X169430000Y-92190000D01*
X170930000Y-92190000D02*
X170180000Y-91440000D01*
X170930000Y-90690000D02*
X170180000Y-91440000D01*
X142778000Y-66324000D02*
X144018000Y-67564000D01*
X167742500Y-90690000D02*
X169430000Y-90690000D01*
X170430000Y-91690000D02*
X170180000Y-91440000D01*
X147604000Y-65278000D02*
X147604000Y-66324000D01*
X171930000Y-93408940D02*
X170180000Y-91658940D01*
X172617500Y-92190000D02*
X170930000Y-92190000D01*
X168430000Y-93417672D02*
X170180000Y-91667672D01*
X147604000Y-66324000D02*
X148844000Y-67564000D01*
X156970000Y-75975000D02*
X159483000Y-75975000D01*
D41*
%TO.N,+3V3*%
X127513000Y-65029000D02*
X127513000Y-60203000D01*
X137144000Y-52629924D02*
X135650565Y-51136489D01*
X128762511Y-51136489D02*
X127513000Y-52386000D01*
X137144000Y-52629924D02*
X138223435Y-51550489D01*
D42*
X171666250Y-87846250D02*
X172310000Y-87202500D01*
X171430000Y-89002500D02*
X171430000Y-88082500D01*
D41*
X130572000Y-57985000D02*
X127513000Y-54926000D01*
X174752000Y-68072000D02*
X174752000Y-84760500D01*
X137144000Y-58420000D02*
X137144000Y-52629924D01*
X134141000Y-74705000D02*
X131572000Y-72136000D01*
X135352000Y-64528978D02*
X135752489Y-64128489D01*
X140087511Y-64128489D02*
X143854489Y-64128489D01*
X156970000Y-77245000D02*
X150742138Y-77245000D01*
X150742138Y-77245000D02*
X148202138Y-74705000D01*
X127513000Y-54926000D02*
X127513000Y-52386000D01*
X147670000Y-74705000D02*
X134141000Y-74705000D01*
X148202138Y-74705000D02*
X147670000Y-74705000D01*
X130572000Y-58420000D02*
X130572000Y-57985000D01*
X127513000Y-60203000D02*
X127513000Y-54926000D01*
X135650565Y-51136489D02*
X128762511Y-51136489D01*
D42*
X171430000Y-88082500D02*
X171666250Y-87846250D01*
D41*
X131572000Y-69088000D02*
X127513000Y-65029000D01*
X135352000Y-65278000D02*
X135352000Y-64528978D01*
X140178000Y-65278000D02*
X140178000Y-64218978D01*
X138223435Y-51550489D02*
X158230489Y-51550489D01*
X131572000Y-72136000D02*
X131572000Y-69088000D01*
X140178000Y-64218978D02*
X140087511Y-64128489D01*
X174752000Y-84760500D02*
X172310000Y-87202500D01*
X158230489Y-51550489D02*
X174752000Y-68072000D01*
X127513000Y-60203000D02*
X132588000Y-65278000D01*
X143854489Y-64128489D02*
X145004000Y-65278000D01*
X135752489Y-64128489D02*
X140087511Y-64128489D01*
X132588000Y-65278000D02*
X135352000Y-65278000D01*
D42*
%TO.N,Net-(R3-Pad1)*%
X137160000Y-97536000D02*
X137160000Y-126522000D01*
X147670000Y-87405000D02*
X147291000Y-87405000D01*
X147291000Y-87405000D02*
X137160000Y-97536000D01*
X137160000Y-126522000D02*
X129524000Y-134158000D01*
%TO.N,Net-(R3-Pad2)*%
X123688000Y-134158000D02*
X127524000Y-134158000D01*
%TO.N,Net-(R4-Pad1)*%
X131318000Y-123428000D02*
X129524000Y-125222000D01*
X131318000Y-102060928D02*
X131318000Y-123428000D01*
X147243928Y-86135000D02*
X131318000Y-102060928D01*
X147670000Y-86135000D02*
X147243928Y-86135000D01*
%TO.N,Net-(R4-Pad2)*%
X123688000Y-125222000D02*
X127524000Y-125222000D01*
%TO.N,Net-(R5-Pad1)*%
X130448520Y-101660408D02*
X130448520Y-115412480D01*
X147670000Y-84865000D02*
X147243928Y-84865000D01*
X147243928Y-84865000D02*
X130448520Y-101660408D01*
X130448520Y-115412480D02*
X129524000Y-116337000D01*
%TO.N,Net-(R5-Pad2)*%
X123688000Y-116337000D02*
X127524000Y-116337000D01*
%TO.N,Net-(R6-Pad1)*%
X147243928Y-83595000D02*
X129524000Y-101314928D01*
X147670000Y-83595000D02*
X147243928Y-83595000D01*
X129524000Y-101314928D02*
X129524000Y-107442000D01*
%TO.N,Net-(R6-Pad2)*%
X123688000Y-107442000D02*
X127524000Y-107442000D01*
%TO.N,Net-(R7-Pad1)*%
X145780000Y-82296000D02*
X129524000Y-98552000D01*
X147670000Y-82325000D02*
X147641000Y-82296000D01*
X147641000Y-82296000D02*
X145780000Y-82296000D01*
%TO.N,Net-(R7-Pad2)*%
X123688000Y-98552000D02*
X127524000Y-98552000D01*
%TO.N,Net-(R8-Pad2)*%
X123688000Y-89662000D02*
X127524000Y-89662000D01*
%TO.N,Net-(R9-Pad2)*%
X123688000Y-80772000D02*
X127524000Y-80772000D01*
%TO.N,Net-(R10-Pad1)*%
X147670000Y-78515000D02*
X134903000Y-78515000D01*
X129524000Y-73136000D02*
X129524000Y-71882000D01*
X134903000Y-78515000D02*
X129524000Y-73136000D01*
%TO.N,Net-(R10-Pad2)*%
X123688000Y-71882000D02*
X127524000Y-71882000D01*
D43*
%TO.N,/D7-*%
X171430000Y-57587500D02*
X172773363Y-57587500D01*
X172781930Y-58020333D02*
X172781931Y-58020332D01*
X172853837Y-89707843D02*
X172635343Y-89707843D01*
X174478987Y-59293124D02*
X178837844Y-63651981D01*
X173630459Y-58868860D02*
X173475531Y-59023787D01*
X173630458Y-58868861D02*
X173630459Y-58868860D01*
X173051268Y-58599522D02*
X173051267Y-58599523D01*
X173630458Y-58444595D02*
X173630459Y-58444596D01*
X172773363Y-57587500D02*
X172781931Y-57596068D01*
X173051267Y-58599523D02*
X173206194Y-58444595D01*
X172635343Y-89707843D02*
X172617500Y-89690000D01*
X173899796Y-59448050D02*
X173899795Y-59448051D01*
X173899795Y-59448051D02*
X174054722Y-59293123D01*
X172781931Y-58020332D02*
X172627003Y-58175259D01*
X174478986Y-59293123D02*
X174478987Y-59293124D01*
X178837844Y-83723836D02*
X172853837Y-89707843D01*
X178837844Y-63651981D02*
X178837844Y-83723836D01*
X172781930Y-58020333D02*
G75*
G03*
X172781931Y-57596068I-212130J212133D01*
G01*
X173899833Y-59448087D02*
G75*
G02*
X173475531Y-59448051I-212133J212187D01*
G01*
X173630430Y-58868833D02*
G75*
G03*
X173630459Y-58444596I-212130J212133D01*
G01*
X173475550Y-59448032D02*
G75*
G02*
X173475531Y-59023787I212150J212132D01*
G01*
X173051232Y-58599486D02*
G75*
G02*
X172627004Y-58599522I-212132J212086D01*
G01*
X174478985Y-59293124D02*
G75*
G03*
X174054723Y-59293124I-212131J-212131D01*
G01*
X172626994Y-58599532D02*
G75*
G02*
X172627003Y-58175259I212106J212132D01*
G01*
X173630457Y-58444596D02*
G75*
G03*
X173206195Y-58444596I-212131J-212131D01*
G01*
%TO.N,/D7+*%
X173360076Y-89915110D02*
X173360076Y-89858244D01*
X179302156Y-83916164D02*
X179302156Y-63459656D01*
X179302156Y-63459656D02*
X171430000Y-55587500D01*
X173103029Y-90172157D02*
X173360076Y-89915110D01*
X172617500Y-90190000D02*
X172635343Y-90172157D01*
X173360076Y-89858244D02*
X179302156Y-83916164D01*
X172635343Y-90172157D02*
X173103029Y-90172157D01*
%TO.N,/D6-*%
X191214165Y-59940000D02*
X191450000Y-59940000D01*
X191450000Y-60540000D02*
X191214165Y-60540000D01*
X191450000Y-59340000D02*
X191214165Y-59340000D01*
X191750000Y-62690000D02*
X191750000Y-72921680D01*
X172635343Y-91207843D02*
X172617500Y-91190000D01*
X173463837Y-91207843D02*
X172635343Y-91207843D01*
X191214165Y-62340000D02*
X191450000Y-62340000D01*
X191750000Y-62640000D02*
X191750000Y-62690000D01*
X191750000Y-72921680D02*
X173463837Y-91207843D01*
X191214165Y-61140000D02*
X191450000Y-61140000D01*
X191750000Y-57587500D02*
X191750000Y-59040000D01*
X191450000Y-61740000D02*
X191214165Y-61740000D01*
X190914200Y-60840000D02*
G75*
G02*
X191214165Y-60540000I300000J0D01*
G01*
X191450000Y-60540000D02*
G75*
G03*
X191750000Y-60240000I0J300000D01*
G01*
X190914200Y-62040000D02*
G75*
G02*
X191214165Y-61740000I300000J0D01*
G01*
X191214165Y-59940035D02*
G75*
G02*
X190914165Y-59640000I35J300035D01*
G01*
X191750000Y-60240000D02*
G75*
G03*
X191450000Y-59940000I-300000J0D01*
G01*
X191750000Y-61440000D02*
G75*
G03*
X191450000Y-61140000I-300000J0D01*
G01*
X191450000Y-61740000D02*
G75*
G03*
X191750000Y-61440000I0J300000D01*
G01*
X191214165Y-61140035D02*
G75*
G02*
X190914165Y-60840000I35J300035D01*
G01*
X191214165Y-62340035D02*
G75*
G02*
X190914165Y-62040000I35J300035D01*
G01*
X190914200Y-59640000D02*
G75*
G02*
X191214165Y-59340000I300000J0D01*
G01*
X191750000Y-62640000D02*
G75*
G03*
X191450000Y-62340000I-300000J0D01*
G01*
X191450000Y-59340000D02*
G75*
G03*
X191750000Y-59040000I0J300000D01*
G01*
%TO.N,/D6+*%
X172635343Y-91672157D02*
X172617500Y-91690000D01*
X173656163Y-91672157D02*
X172635343Y-91672157D01*
X191750000Y-55587500D02*
X192214312Y-56051812D01*
X192880067Y-57119410D02*
X192880067Y-58055590D01*
X192214312Y-73114008D02*
X173656163Y-91672157D01*
X192880067Y-58055590D02*
X192214312Y-58721345D01*
X192214312Y-58721345D02*
X192214312Y-73114008D01*
X192214312Y-56051812D02*
X192214312Y-56453655D01*
X192214312Y-56453655D02*
X192880067Y-57119410D01*
%TO.N,/D5+*%
X172617500Y-93190000D02*
X172635343Y-93172157D01*
X172635343Y-93172157D02*
X185230343Y-93172157D01*
X185230343Y-93172157D02*
X206032500Y-72370000D01*
%TO.N,/D5-*%
X203345666Y-73975931D02*
X203345667Y-73975931D01*
X204032500Y-73713363D02*
X203769932Y-73975931D01*
X185038020Y-92707843D02*
X172635343Y-92707843D01*
X202921403Y-74824459D02*
X199775329Y-77970534D01*
X172635343Y-92707843D02*
X172617500Y-92690000D01*
X204032500Y-72370000D02*
X204032500Y-73713363D01*
X203345667Y-73975931D02*
X203090933Y-73721197D01*
X202666669Y-74145461D02*
X202921402Y-74400194D01*
X199775329Y-77970534D02*
X185038020Y-92707843D01*
X202921402Y-74824458D02*
X202921403Y-74824459D01*
X202921376Y-74824432D02*
G75*
G03*
X202921402Y-74400194I-212076J212132D01*
G01*
X202666670Y-73721198D02*
G75*
G02*
X203090932Y-73721198I212131J-212131D01*
G01*
X202666699Y-74145431D02*
G75*
G02*
X202666670Y-73721198I212101J212131D01*
G01*
X203345666Y-73975931D02*
G75*
G03*
X203769932Y-73975931I212133J212134D01*
G01*
%TO.N,/D4+*%
X170947843Y-94822163D02*
X172115836Y-95990156D01*
X172115836Y-95990156D02*
X202732344Y-95990156D01*
X202732344Y-95990156D02*
X206032500Y-92690000D01*
X170930000Y-93877500D02*
X170947843Y-93895343D01*
X170947843Y-93895343D02*
X170947843Y-94822163D01*
%TO.N,/D4-*%
X200705844Y-95225844D02*
X200705844Y-95024715D01*
X199805844Y-95525844D02*
X199755844Y-95525844D01*
X201905844Y-95225844D02*
X201905844Y-95024715D01*
X204032500Y-92690000D02*
X204032500Y-94033363D01*
X171412157Y-94629837D02*
X171412157Y-93895343D01*
X171412157Y-93895343D02*
X171430000Y-93877500D01*
X201305844Y-95024715D02*
X201305844Y-95225844D01*
X202540019Y-95525844D02*
X202205844Y-95525844D01*
X172308164Y-95525844D02*
X171412157Y-94629837D01*
X200105844Y-95024715D02*
X200105844Y-95225844D01*
X199755844Y-95525844D02*
X172308164Y-95525844D01*
X204032500Y-94033363D02*
X202540019Y-95525844D01*
X201005844Y-95525844D02*
G75*
G03*
X201305844Y-95225844I-44J300044D01*
G01*
X200105815Y-95024715D02*
G75*
G02*
X200405844Y-94724715I299985J15D01*
G01*
X200405844Y-94724656D02*
G75*
G02*
X200705844Y-95024715I-44J-300044D01*
G01*
X201905756Y-95225844D02*
G75*
G03*
X202205844Y-95525844I300044J44D01*
G01*
X199805844Y-95525844D02*
G75*
G03*
X200105844Y-95225844I-44J300044D01*
G01*
X200705756Y-95225844D02*
G75*
G03*
X201005844Y-95525844I300044J44D01*
G01*
X201605844Y-94724656D02*
G75*
G02*
X201905844Y-95024715I-44J-300044D01*
G01*
X201305815Y-95024715D02*
G75*
G02*
X201605844Y-94724715I299985J15D01*
G01*
%TO.N,/D3+*%
X204500590Y-111879933D02*
X205166345Y-112545688D01*
X182824008Y-112545688D02*
X202898655Y-112545688D01*
X205568188Y-112545688D02*
X206032500Y-113010000D01*
X169412157Y-99133837D02*
X182824008Y-112545688D01*
X205166345Y-112545688D02*
X205568188Y-112545688D01*
X203564410Y-111879933D02*
X204500590Y-111879933D01*
X169412157Y-93895343D02*
X169412157Y-99133837D01*
X169430000Y-93877500D02*
X169412157Y-93895343D01*
X202898655Y-112545688D02*
X203564410Y-111879933D01*
%TO.N,/D3-*%
X201320000Y-113310000D02*
X201320000Y-113450442D01*
X168947843Y-99326163D02*
X168947843Y-93895343D01*
X204032500Y-113010000D02*
X202820000Y-113010000D01*
X200720000Y-113450442D02*
X200720000Y-113310000D01*
X201920000Y-113450442D02*
X201920000Y-113310000D01*
X168947843Y-93895343D02*
X168930000Y-93877500D01*
X199170000Y-113010000D02*
X182631680Y-113010000D01*
X200420000Y-113010000D02*
X199170000Y-113010000D01*
X202520000Y-113310000D02*
X202520000Y-113450442D01*
X182631680Y-113010000D02*
X168947843Y-99326163D01*
X201020000Y-113750400D02*
G75*
G03*
X201320000Y-113450442I0J300000D01*
G01*
X200420000Y-113010000D02*
G75*
G02*
X200720000Y-113310000I0J-300000D01*
G01*
X202520000Y-113310000D02*
G75*
G02*
X202820000Y-113010000I300000J0D01*
G01*
X201919958Y-113450442D02*
G75*
G03*
X202220000Y-113750442I300042J42D01*
G01*
X201620000Y-113010000D02*
G75*
G02*
X201920000Y-113310000I0J-300000D01*
G01*
X201320000Y-113310000D02*
G75*
G02*
X201620000Y-113010000I300000J0D01*
G01*
X200719958Y-113450442D02*
G75*
G03*
X201020000Y-113750442I300042J42D01*
G01*
X202220000Y-113750400D02*
G75*
G03*
X202520000Y-113450442I0J300000D01*
G01*
%TO.N,/D2+*%
X167724657Y-93172157D02*
X167196163Y-93172157D01*
X190380067Y-125760590D02*
X189714312Y-126426345D01*
X190380067Y-124824410D02*
X190380067Y-125760590D01*
X166372156Y-101243836D02*
X189290753Y-124162433D01*
X189290753Y-124162433D02*
X189718090Y-124162433D01*
X166372156Y-93996164D02*
X166372156Y-101243836D01*
X167742500Y-93190000D02*
X167724657Y-93172157D01*
X189718090Y-124162433D02*
X190380067Y-124824410D01*
X167196163Y-93172157D02*
X166372156Y-93996164D01*
X189714312Y-126828188D02*
X189250000Y-127292500D01*
X189714312Y-126426345D02*
X189714312Y-126828188D01*
%TO.N,/D2-*%
X187742310Y-123270630D02*
X187742311Y-123270631D01*
X187587686Y-123849518D02*
X187587686Y-123849517D01*
X167724657Y-92707843D02*
X167742500Y-92690000D01*
X189250000Y-125292500D02*
X189250000Y-124778320D01*
X187318045Y-123270630D02*
X187163422Y-123425254D01*
X187318046Y-123270630D02*
X187318045Y-123270630D01*
X189250000Y-124778320D02*
X188590840Y-124119160D01*
X188166574Y-124119159D02*
X188011951Y-124273783D01*
X186893781Y-122422101D02*
X186893782Y-122422102D01*
X188166575Y-124119159D02*
X188166574Y-124119159D01*
X187587686Y-123849517D02*
X187742310Y-123694894D01*
X186739157Y-123000989D02*
X186739157Y-123000988D01*
X186739157Y-123000988D02*
X186893781Y-122846365D01*
X165907844Y-93803836D02*
X167003837Y-92707843D01*
X167003837Y-92707843D02*
X167724657Y-92707843D01*
X165907844Y-101436164D02*
X165907844Y-93803836D01*
X186893782Y-122422102D02*
X165907844Y-101436164D01*
X187742272Y-123270668D02*
G75*
G02*
X187742310Y-123694894I-212072J-212132D01*
G01*
X188166568Y-124119152D02*
G75*
G02*
X188590840Y-124119160I212132J-212148D01*
G01*
X187587688Y-124273782D02*
G75*
G03*
X188011950Y-124273782I212131J212131D01*
G01*
X186739136Y-123000968D02*
G75*
G03*
X186739158Y-123425254I212164J-212132D01*
G01*
X187318068Y-123270652D02*
G75*
G02*
X187742311Y-123270631I212132J-212148D01*
G01*
X186893813Y-122422069D02*
G75*
G02*
X186893780Y-122846364I-212213J-212131D01*
G01*
X186739159Y-123425253D02*
G75*
G03*
X187163421Y-123425253I212131J212131D01*
G01*
X187587737Y-123849569D02*
G75*
G03*
X187587688Y-124273782I212063J-212131D01*
G01*
%TO.N,/D1+*%
X167742500Y-91690000D02*
X167724657Y-91672157D01*
X163731956Y-114443636D02*
X169394312Y-120105992D01*
X169394312Y-126828188D02*
X168930000Y-127292500D01*
X169394312Y-120105992D02*
X169394312Y-124158655D01*
X169394312Y-124158655D02*
X170060067Y-124824410D01*
X165983563Y-91672157D02*
X163731956Y-93923764D01*
X163731956Y-93923764D02*
X163731956Y-114443636D01*
X170060067Y-125760590D02*
X169394312Y-126426345D01*
X167724657Y-91672157D02*
X165983563Y-91672157D01*
X169394312Y-126426345D02*
X169394312Y-126828188D01*
X170060067Y-124824410D02*
X170060067Y-125760590D01*
%TO.N,/D1-*%
X168930000Y-125292500D02*
X168930000Y-124230000D01*
X165791237Y-91207843D02*
X167724657Y-91207843D01*
X168630000Y-123930000D02*
X168489575Y-123930000D01*
X168489575Y-123330000D02*
X168630000Y-123330000D01*
X168630000Y-122730000D02*
X168489575Y-122730000D01*
X168489575Y-122130000D02*
X168630000Y-122130000D01*
X163267644Y-114635964D02*
X163267644Y-93731436D01*
X167724657Y-91207843D02*
X167742500Y-91190000D01*
X168930000Y-120298320D02*
X163267644Y-114635964D01*
X163267644Y-93731436D02*
X165791237Y-91207843D01*
X168930000Y-121780000D02*
X168930000Y-120298320D01*
X168930000Y-121830000D02*
X168930000Y-121780000D01*
X168930000Y-121830000D02*
G75*
G02*
X168630000Y-122130000I-300000J0D01*
G01*
X168489575Y-122129975D02*
G75*
G03*
X168189575Y-122430000I25J-300025D01*
G01*
X168630000Y-122730000D02*
G75*
G02*
X168930000Y-123030000I0J-300000D01*
G01*
X168630000Y-123930000D02*
G75*
G02*
X168930000Y-124230000I0J-300000D01*
G01*
X168930000Y-123030000D02*
G75*
G02*
X168630000Y-123330000I-300000J0D01*
G01*
X168189600Y-123630000D02*
G75*
G03*
X168489575Y-123930000I300000J0D01*
G01*
X168189600Y-122430000D02*
G75*
G03*
X168489575Y-122730000I300000J0D01*
G01*
X168489575Y-123329975D02*
G75*
G03*
X168189575Y-123630000I25J-300025D01*
G01*
%TO.N,/D0+*%
X149074312Y-124158655D02*
X149740067Y-124824410D01*
X149074312Y-126828188D02*
X148610000Y-127292500D01*
X167742500Y-90190000D02*
X167724657Y-90172157D01*
X149740067Y-125760590D02*
X149074312Y-126426345D01*
X149074312Y-104914008D02*
X149074312Y-124158655D01*
X163816163Y-90172157D02*
X149074312Y-104914008D01*
X167724657Y-90172157D02*
X163816163Y-90172157D01*
X149740067Y-124824410D02*
X149740067Y-125760590D01*
X149074312Y-126426345D02*
X149074312Y-126828188D01*
%TO.N,/D0-*%
X148169575Y-123280000D02*
X148310000Y-123280000D01*
X148310000Y-123880000D02*
X148169575Y-123880000D01*
X148310000Y-122680000D02*
X148169575Y-122680000D01*
X148610000Y-121780000D02*
X148610000Y-120530000D01*
X163623837Y-89707843D02*
X167724657Y-89707843D01*
X148169575Y-122080000D02*
X148310000Y-122080000D01*
X148610000Y-125292500D02*
X148610000Y-124180000D01*
X148610000Y-120530000D02*
X148610000Y-104721680D01*
X167724657Y-89707843D02*
X167742500Y-89690000D01*
X148610000Y-104721680D02*
X163623837Y-89707843D01*
X147869600Y-123580000D02*
G75*
G03*
X148169575Y-123880000I300000J0D01*
G01*
X148310000Y-123880000D02*
G75*
G02*
X148610000Y-124180000I0J-300000D01*
G01*
X148169575Y-123279975D02*
G75*
G03*
X147869575Y-123580000I25J-300025D01*
G01*
X148610000Y-122980000D02*
G75*
G02*
X148310000Y-123280000I-300000J0D01*
G01*
X148610000Y-121780000D02*
G75*
G02*
X148310000Y-122080000I-300000J0D01*
G01*
X148310000Y-122680000D02*
G75*
G02*
X148610000Y-122980000I0J-300000D01*
G01*
X148169575Y-122079975D02*
G75*
G03*
X147869575Y-122380000I25J-300025D01*
G01*
X147869600Y-122380000D02*
G75*
G03*
X148169575Y-122680000I300000J0D01*
G01*
%TO.N,/COM-*%
X151979526Y-58215945D02*
X151979526Y-58215946D01*
X151555264Y-57791681D02*
X151555263Y-57791682D01*
X150860000Y-56160000D02*
X150860000Y-57503363D01*
X170412157Y-88984657D02*
X170430000Y-89002500D01*
X151979526Y-58622890D02*
X151996847Y-58640210D01*
X151555263Y-57791682D02*
X151555264Y-57791682D01*
X170412157Y-77055520D02*
X170412157Y-88984657D01*
X150860000Y-57503363D02*
X151148319Y-57791682D01*
X151962208Y-57791682D02*
X151979527Y-57809001D01*
X151979527Y-58215945D02*
X151979526Y-58215945D01*
X151996847Y-58640210D02*
X170412157Y-77055520D01*
X151962208Y-57791682D02*
G75*
G03*
X151555264Y-57791682I-203472J-203468D01*
G01*
X151979554Y-58215972D02*
G75*
G03*
X151979527Y-57809001I-203454J203472D01*
G01*
X151979544Y-58622872D02*
G75*
G02*
X151979526Y-58215946I203456J203472D01*
G01*
X151555273Y-57791690D02*
G75*
G02*
X151148319Y-57791682I-203473J203490D01*
G01*
%TO.N,/COM+*%
X169947843Y-88984657D02*
X169930000Y-89002500D01*
X148860000Y-56160000D02*
X169947843Y-77247843D01*
X169947843Y-77247843D02*
X169947843Y-88984657D01*
D42*
%TO.N,Net-(C5-Pad1)*%
X170710000Y-96470000D02*
X170710000Y-96796000D01*
X169930000Y-95690000D02*
X169930000Y-93877500D01*
X176276000Y-102362000D02*
X180848000Y-102362000D01*
X170710000Y-96796000D02*
X176276000Y-102362000D01*
X170710000Y-96470000D02*
X169930000Y-95690000D01*
%TO.N,Net-(J2-Pad7)*%
X155620480Y-71241552D02*
X155620480Y-70530480D01*
X156543928Y-72165000D02*
X155620480Y-71241552D01*
X156970000Y-72165000D02*
X156543928Y-72165000D01*
X134046040Y-59894040D02*
X132572000Y-58420000D01*
X132593000Y-58399000D02*
X132593000Y-54926000D01*
X132572000Y-58420000D02*
X132593000Y-58399000D01*
X155620480Y-70530480D02*
X144984040Y-59894040D01*
X132593000Y-54926000D02*
X132593000Y-52386000D01*
X144984040Y-59894040D02*
X134046040Y-59894040D01*
%TO.N,Net-(J2-Pad10)*%
X135144000Y-58420000D02*
X135133000Y-58409000D01*
X158496000Y-72335072D02*
X157396072Y-73435000D01*
X157396072Y-73435000D02*
X156970000Y-73435000D01*
X135133000Y-58409000D02*
X135133000Y-54926000D01*
X135144000Y-58420000D02*
X136168520Y-59444520D01*
X147215592Y-59444520D02*
X158496000Y-70724928D01*
X158496000Y-70724928D02*
X158496000Y-72335072D01*
X136168520Y-59444520D02*
X147215592Y-59444520D01*
X135133000Y-54926000D02*
X135133000Y-52386000D01*
%TO.N,Net-(JP1-Pad2)*%
X147670000Y-70895000D02*
X146304000Y-69529000D01*
X146304000Y-69529000D02*
X146304000Y-65278000D01*
%TO.N,Net-(JP2-Pad2)*%
X141478000Y-66399072D02*
X141478000Y-65278000D01*
X147670000Y-72165000D02*
X147243928Y-72165000D01*
X147243928Y-72165000D02*
X141478000Y-66399072D01*
%TO.N,Net-(JP3-Pad2)*%
X147670000Y-73435000D02*
X140237000Y-73435000D01*
X136652000Y-69850000D02*
X136652000Y-65278000D01*
X140237000Y-73435000D02*
X136652000Y-69850000D01*
%TO.N,Net-(JU1-Pad1)*%
X170930000Y-84086000D02*
X173228000Y-81788000D01*
X170930000Y-89002500D02*
X170930000Y-84086000D01*
%TO.N,Net-(JU2-Pad1)*%
X157507000Y-83058000D02*
X162990000Y-83058000D01*
X156970000Y-83595000D02*
X157507000Y-83058000D01*
%TO.N,Net-(R8-Pad1)*%
X147670000Y-81055000D02*
X138131000Y-81055000D01*
X138131000Y-81055000D02*
X129524000Y-89662000D01*
%TO.N,Net-(R9-Pad1)*%
X130511000Y-79785000D02*
X129524000Y-80772000D01*
X147670000Y-79785000D02*
X130511000Y-79785000D01*
%TO.N,Net-(U3-Pad3)*%
X165888046Y-84865000D02*
X156970000Y-84865000D01*
X169430000Y-89002500D02*
X169430000Y-88406954D01*
X169430000Y-88406954D02*
X165888046Y-84865000D01*
%TO.N,Net-(U3-Pad2)*%
X166522328Y-86135000D02*
X156970000Y-86135000D01*
X168930000Y-89002500D02*
X168930000Y-88542672D01*
X168930000Y-88542672D02*
X166522328Y-86135000D01*
%TO.N,Net-(U3-Pad1)*%
X168430000Y-89002500D02*
X166832500Y-87405000D01*
X166832500Y-87405000D02*
X156970000Y-87405000D01*
%TD*%
M02*
