%TF.GenerationSoftware,KiCad,Pcbnew,(6.0.4)*%
%TF.CreationDate,2022-11-01T18:45:11-05:00*%
%TF.ProjectId,RaspPi_RemoteClusterController,52617370-5069-45f5-9265-6d6f7465436c,rev?*%
%TF.SameCoordinates,Original*%
%TF.FileFunction,Legend,Top*%
%TF.FilePolarity,Positive*%
%FSLAX46Y46*%
G04 Gerber Fmt 4.6, Leading zero omitted, Abs format (unit mm)*
G04 Created by KiCad (PCBNEW (6.0.4)) date 2022-11-01 18:45:11*
%MOMM*%
%LPD*%
G01*
G04 APERTURE LIST*
G04 Aperture macros list*
%AMRoundRect*
0 Rectangle with rounded corners*
0 $1 Rounding radius*
0 $2 $3 $4 $5 $6 $7 $8 $9 X,Y pos of 4 corners*
0 Add a 4 corners polygon primitive as box body*
4,1,4,$2,$3,$4,$5,$6,$7,$8,$9,$2,$3,0*
0 Add four circle primitives for the rounded corners*
1,1,$1+$1,$2,$3*
1,1,$1+$1,$4,$5*
1,1,$1+$1,$6,$7*
1,1,$1+$1,$8,$9*
0 Add four rect primitives between the rounded corners*
20,1,$1+$1,$2,$3,$4,$5,0*
20,1,$1+$1,$4,$5,$6,$7,0*
20,1,$1+$1,$6,$7,$8,$9,0*
20,1,$1+$1,$8,$9,$2,$3,0*%
%AMFreePoly0*
4,1,14,0.340806,0.106694,0.394194,0.053306,0.412500,0.009112,0.412500,-0.062500,0.394194,-0.106694,0.350000,-0.125000,-0.350000,-0.125000,-0.394194,-0.106694,-0.412500,-0.062500,-0.412500,0.062500,-0.394194,0.106694,-0.350000,0.125000,0.296612,0.125000,0.340806,0.106694,0.340806,0.106694,$1*%
%AMFreePoly1*
4,1,14,0.394194,0.106694,0.412500,0.062500,0.412500,-0.009112,0.394194,-0.053306,0.340806,-0.106694,0.296612,-0.125000,-0.350000,-0.125000,-0.394194,-0.106694,-0.412500,-0.062500,-0.412500,0.062500,-0.394194,0.106694,-0.350000,0.125000,0.350000,0.125000,0.394194,0.106694,0.394194,0.106694,$1*%
%AMFreePoly2*
4,1,14,0.106694,0.394194,0.125000,0.350000,0.125000,-0.350000,0.106694,-0.394194,0.062500,-0.412500,-0.062500,-0.412500,-0.106694,-0.394194,-0.125000,-0.350000,-0.125000,0.296612,-0.106694,0.340806,-0.053306,0.394194,-0.009112,0.412500,0.062500,0.412500,0.106694,0.394194,0.106694,0.394194,$1*%
%AMFreePoly3*
4,1,14,0.053306,0.394194,0.106694,0.340806,0.125000,0.296612,0.125000,-0.350000,0.106694,-0.394194,0.062500,-0.412500,-0.062500,-0.412500,-0.106694,-0.394194,-0.125000,-0.350000,-0.125000,0.350000,-0.106694,0.394194,-0.062500,0.412500,0.009112,0.412500,0.053306,0.394194,0.053306,0.394194,$1*%
%AMFreePoly4*
4,1,14,0.394194,0.106694,0.412500,0.062500,0.412500,-0.062500,0.394194,-0.106694,0.350000,-0.125000,-0.296612,-0.125000,-0.340806,-0.106694,-0.394194,-0.053306,-0.412500,-0.009112,-0.412500,0.062500,-0.394194,0.106694,-0.350000,0.125000,0.350000,0.125000,0.394194,0.106694,0.394194,0.106694,$1*%
%AMFreePoly5*
4,1,14,0.394194,0.106694,0.412500,0.062500,0.412500,-0.062500,0.394194,-0.106694,0.350000,-0.125000,-0.350000,-0.125000,-0.394194,-0.106694,-0.412500,-0.062500,-0.412500,0.009112,-0.394194,0.053306,-0.340806,0.106694,-0.296612,0.125000,0.350000,0.125000,0.394194,0.106694,0.394194,0.106694,$1*%
%AMFreePoly6*
4,1,14,0.106694,0.394194,0.125000,0.350000,0.125000,-0.296612,0.106694,-0.340806,0.053306,-0.394194,0.009112,-0.412500,-0.062500,-0.412500,-0.106694,-0.394194,-0.125000,-0.350000,-0.125000,0.350000,-0.106694,0.394194,-0.062500,0.412500,0.062500,0.412500,0.106694,0.394194,0.106694,0.394194,$1*%
%AMFreePoly7*
4,1,14,0.106694,0.394194,0.125000,0.350000,0.125000,-0.350000,0.106694,-0.394194,0.062500,-0.412500,-0.009112,-0.412500,-0.053306,-0.394194,-0.106694,-0.340806,-0.125000,-0.296612,-0.125000,0.350000,-0.106694,0.394194,-0.062500,0.412500,0.062500,0.412500,0.106694,0.394194,0.106694,0.394194,$1*%
G04 Aperture macros list end*
%ADD10C,0.150000*%
%ADD11C,0.120000*%
%ADD12C,1.600000*%
%ADD13R,1.600000X1.600000*%
%ADD14C,4.000000*%
%ADD15O,1.600000X1.600000*%
%ADD16R,1.700000X1.700000*%
%ADD17RoundRect,0.250000X0.350000X0.450000X-0.350000X0.450000X-0.350000X-0.450000X0.350000X-0.450000X0*%
%ADD18C,3.200000*%
%ADD19RoundRect,0.237500X0.237500X-0.300000X0.237500X0.300000X-0.237500X0.300000X-0.237500X-0.300000X0*%
%ADD20O,1.700000X1.700000*%
%ADD21RoundRect,0.250000X-0.350000X-0.450000X0.350000X-0.450000X0.350000X0.450000X-0.350000X0.450000X0*%
%ADD22R,1.000000X1.500000*%
%ADD23R,2.000000X1.905000*%
%ADD24O,2.000000X1.905000*%
%ADD25R,1.600000X1.500000*%
%ADD26C,3.000000*%
%ADD27FreePoly0,270.000000*%
%ADD28RoundRect,0.062500X-0.062500X0.350000X-0.062500X-0.350000X0.062500X-0.350000X0.062500X0.350000X0*%
%ADD29FreePoly1,270.000000*%
%ADD30FreePoly2,270.000000*%
%ADD31RoundRect,0.062500X-0.350000X0.062500X-0.350000X-0.062500X0.350000X-0.062500X0.350000X0.062500X0*%
%ADD32FreePoly3,270.000000*%
%ADD33FreePoly4,270.000000*%
%ADD34FreePoly5,270.000000*%
%ADD35FreePoly6,270.000000*%
%ADD36FreePoly7,270.000000*%
%ADD37R,3.100000X3.100000*%
%ADD38RoundRect,0.237500X-0.237500X0.300000X-0.237500X-0.300000X0.237500X-0.300000X0.237500X0.300000X0*%
%ADD39RoundRect,0.150000X0.875000X0.150000X-0.875000X0.150000X-0.875000X-0.150000X0.875000X-0.150000X0*%
%ADD40R,3.500000X3.500000*%
%ADD41RoundRect,0.750000X-0.750000X-1.000000X0.750000X-1.000000X0.750000X1.000000X-0.750000X1.000000X0*%
%ADD42RoundRect,0.875000X-0.875000X-0.875000X0.875000X-0.875000X0.875000X0.875000X-0.875000X0.875000X0*%
%ADD43C,0.800000*%
G04 APERTURE END LIST*
D10*
%TO.C,C3*%
X113701142Y-60364666D02*
X113748761Y-60412285D01*
X113796380Y-60555142D01*
X113796380Y-60650380D01*
X113748761Y-60793238D01*
X113653523Y-60888476D01*
X113558285Y-60936095D01*
X113367809Y-60983714D01*
X113224952Y-60983714D01*
X113034476Y-60936095D01*
X112939238Y-60888476D01*
X112844000Y-60793238D01*
X112796380Y-60650380D01*
X112796380Y-60555142D01*
X112844000Y-60412285D01*
X112891619Y-60364666D01*
X112796380Y-60031333D02*
X112796380Y-59412285D01*
X113177333Y-59745619D01*
X113177333Y-59602761D01*
X113224952Y-59507523D01*
X113272571Y-59459904D01*
X113367809Y-59412285D01*
X113605904Y-59412285D01*
X113701142Y-59459904D01*
X113748761Y-59507523D01*
X113796380Y-59602761D01*
X113796380Y-59888476D01*
X113748761Y-59983714D01*
X113701142Y-60031333D01*
%TO.C,C2*%
X113133142Y-64936666D02*
X113180761Y-64984285D01*
X113228380Y-65127142D01*
X113228380Y-65222380D01*
X113180761Y-65365238D01*
X113085523Y-65460476D01*
X112990285Y-65508095D01*
X112799809Y-65555714D01*
X112656952Y-65555714D01*
X112466476Y-65508095D01*
X112371238Y-65460476D01*
X112276000Y-65365238D01*
X112228380Y-65222380D01*
X112228380Y-65127142D01*
X112276000Y-64984285D01*
X112323619Y-64936666D01*
X112323619Y-64555714D02*
X112276000Y-64508095D01*
X112228380Y-64412857D01*
X112228380Y-64174761D01*
X112276000Y-64079523D01*
X112323619Y-64031904D01*
X112418857Y-63984285D01*
X112514095Y-63984285D01*
X112656952Y-64031904D01*
X113228380Y-64603333D01*
X113228380Y-63984285D01*
%TO.C,C1*%
X112879142Y-57062666D02*
X112926761Y-57110285D01*
X112974380Y-57253142D01*
X112974380Y-57348380D01*
X112926761Y-57491238D01*
X112831523Y-57586476D01*
X112736285Y-57634095D01*
X112545809Y-57681714D01*
X112402952Y-57681714D01*
X112212476Y-57634095D01*
X112117238Y-57586476D01*
X112022000Y-57491238D01*
X111974380Y-57348380D01*
X111974380Y-57253142D01*
X112022000Y-57110285D01*
X112069619Y-57062666D01*
X112974380Y-56110285D02*
X112974380Y-56681714D01*
X112974380Y-56396000D02*
X111974380Y-56396000D01*
X112117238Y-56491238D01*
X112212476Y-56586476D01*
X112260095Y-56681714D01*
%TO.C,J11*%
X158212380Y-133602023D02*
X158926666Y-133602023D01*
X159069523Y-133649642D01*
X159164761Y-133744880D01*
X159212380Y-133887738D01*
X159212380Y-133982976D01*
X159212380Y-132602023D02*
X159212380Y-133173452D01*
X159212380Y-132887738D02*
X158212380Y-132887738D01*
X158355238Y-132982976D01*
X158450476Y-133078214D01*
X158498095Y-133173452D01*
X159212380Y-131649642D02*
X159212380Y-132221071D01*
X159212380Y-131935357D02*
X158212380Y-131935357D01*
X158355238Y-132030595D01*
X158450476Y-132125833D01*
X158498095Y-132221071D01*
%TO.C,J6*%
X211199166Y-61672380D02*
X211199166Y-62386666D01*
X211151547Y-62529523D01*
X211056309Y-62624761D01*
X210913452Y-62672380D01*
X210818214Y-62672380D01*
X212103928Y-61672380D02*
X211913452Y-61672380D01*
X211818214Y-61720000D01*
X211770595Y-61767619D01*
X211675357Y-61910476D01*
X211627738Y-62100952D01*
X211627738Y-62481904D01*
X211675357Y-62577142D01*
X211722976Y-62624761D01*
X211818214Y-62672380D01*
X212008690Y-62672380D01*
X212103928Y-62624761D01*
X212151547Y-62577142D01*
X212199166Y-62481904D01*
X212199166Y-62243809D01*
X212151547Y-62148571D01*
X212103928Y-62100952D01*
X212008690Y-62053333D01*
X211818214Y-62053333D01*
X211722976Y-62100952D01*
X211675357Y-62148571D01*
X211627738Y-62243809D01*
%TO.C,U11*%
X118639904Y-82554380D02*
X118639904Y-83363904D01*
X118687523Y-83459142D01*
X118735142Y-83506761D01*
X118830380Y-83554380D01*
X119020857Y-83554380D01*
X119116095Y-83506761D01*
X119163714Y-83459142D01*
X119211333Y-83363904D01*
X119211333Y-82554380D01*
X120211333Y-83554380D02*
X119639904Y-83554380D01*
X119925619Y-83554380D02*
X119925619Y-82554380D01*
X119830380Y-82697238D01*
X119735142Y-82792476D01*
X119639904Y-82840095D01*
X121163714Y-83554380D02*
X120592285Y-83554380D01*
X120878000Y-83554380D02*
X120878000Y-82554380D01*
X120782761Y-82697238D01*
X120687523Y-82792476D01*
X120592285Y-82840095D01*
%TO.C,JU1*%
X172370857Y-78910380D02*
X172370857Y-79624666D01*
X172323238Y-79767523D01*
X172228000Y-79862761D01*
X172085142Y-79910380D01*
X171989904Y-79910380D01*
X172847047Y-78910380D02*
X172847047Y-79719904D01*
X172894666Y-79815142D01*
X172942285Y-79862761D01*
X173037523Y-79910380D01*
X173228000Y-79910380D01*
X173323238Y-79862761D01*
X173370857Y-79815142D01*
X173418476Y-79719904D01*
X173418476Y-78910380D01*
X174418476Y-79910380D02*
X173847047Y-79910380D01*
X174132761Y-79910380D02*
X174132761Y-78910380D01*
X174037523Y-79053238D01*
X173942285Y-79148476D01*
X173847047Y-79196095D01*
%TO.C,JU4*%
X173894857Y-72560380D02*
X173894857Y-73274666D01*
X173847238Y-73417523D01*
X173752000Y-73512761D01*
X173609142Y-73560380D01*
X173513904Y-73560380D01*
X174371047Y-72560380D02*
X174371047Y-73369904D01*
X174418666Y-73465142D01*
X174466285Y-73512761D01*
X174561523Y-73560380D01*
X174752000Y-73560380D01*
X174847238Y-73512761D01*
X174894857Y-73465142D01*
X174942476Y-73369904D01*
X174942476Y-72560380D01*
X175847238Y-72893714D02*
X175847238Y-73560380D01*
X175609142Y-72512761D02*
X175371047Y-73227047D01*
X175990095Y-73227047D01*
%TO.C,R1*%
X135977333Y-60522380D02*
X135644000Y-60046190D01*
X135405904Y-60522380D02*
X135405904Y-59522380D01*
X135786857Y-59522380D01*
X135882095Y-59570000D01*
X135929714Y-59617619D01*
X135977333Y-59712857D01*
X135977333Y-59855714D01*
X135929714Y-59950952D01*
X135882095Y-59998571D01*
X135786857Y-60046190D01*
X135405904Y-60046190D01*
X136929714Y-60522380D02*
X136358285Y-60522380D01*
X136644000Y-60522380D02*
X136644000Y-59522380D01*
X136548761Y-59665238D01*
X136453523Y-59760476D01*
X136358285Y-59808095D01*
%TO.C,H2*%
X207518095Y-128332380D02*
X207518095Y-127332380D01*
X207518095Y-127808571D02*
X208089523Y-127808571D01*
X208089523Y-128332380D02*
X208089523Y-127332380D01*
X208518095Y-127427619D02*
X208565714Y-127380000D01*
X208660952Y-127332380D01*
X208899047Y-127332380D01*
X208994285Y-127380000D01*
X209041904Y-127427619D01*
X209089523Y-127522857D01*
X209089523Y-127618095D01*
X209041904Y-127760952D01*
X208470476Y-128332380D01*
X209089523Y-128332380D01*
%TO.C,C4*%
X171237142Y-86506666D02*
X171284761Y-86554285D01*
X171332380Y-86697142D01*
X171332380Y-86792380D01*
X171284761Y-86935238D01*
X171189523Y-87030476D01*
X171094285Y-87078095D01*
X170903809Y-87125714D01*
X170760952Y-87125714D01*
X170570476Y-87078095D01*
X170475238Y-87030476D01*
X170380000Y-86935238D01*
X170332380Y-86792380D01*
X170332380Y-86697142D01*
X170380000Y-86554285D01*
X170427619Y-86506666D01*
X170665714Y-85649523D02*
X171332380Y-85649523D01*
X170284761Y-85887619D02*
X170999047Y-86125714D01*
X170999047Y-85506666D01*
%TO.C,J2*%
X122155380Y-49604333D02*
X122869666Y-49604333D01*
X123012523Y-49651952D01*
X123107761Y-49747190D01*
X123155380Y-49890047D01*
X123155380Y-49985285D01*
X122250619Y-49175761D02*
X122203000Y-49128142D01*
X122155380Y-49032904D01*
X122155380Y-48794809D01*
X122203000Y-48699571D01*
X122250619Y-48651952D01*
X122345857Y-48604333D01*
X122441095Y-48604333D01*
X122583952Y-48651952D01*
X123155380Y-49223380D01*
X123155380Y-48604333D01*
%TO.C,JU2*%
X162132857Y-80180380D02*
X162132857Y-80894666D01*
X162085238Y-81037523D01*
X161990000Y-81132761D01*
X161847142Y-81180380D01*
X161751904Y-81180380D01*
X162609047Y-80180380D02*
X162609047Y-80989904D01*
X162656666Y-81085142D01*
X162704285Y-81132761D01*
X162799523Y-81180380D01*
X162990000Y-81180380D01*
X163085238Y-81132761D01*
X163132857Y-81085142D01*
X163180476Y-80989904D01*
X163180476Y-80180380D01*
X163609047Y-80275619D02*
X163656666Y-80228000D01*
X163751904Y-80180380D01*
X163990000Y-80180380D01*
X164085238Y-80228000D01*
X164132857Y-80275619D01*
X164180476Y-80370857D01*
X164180476Y-80466095D01*
X164132857Y-80608952D01*
X163561428Y-81180380D01*
X164180476Y-81180380D01*
%TO.C,U9*%
X119116095Y-100334380D02*
X119116095Y-101143904D01*
X119163714Y-101239142D01*
X119211333Y-101286761D01*
X119306571Y-101334380D01*
X119497047Y-101334380D01*
X119592285Y-101286761D01*
X119639904Y-101239142D01*
X119687523Y-101143904D01*
X119687523Y-100334380D01*
X120211333Y-101334380D02*
X120401809Y-101334380D01*
X120497047Y-101286761D01*
X120544666Y-101239142D01*
X120639904Y-101096285D01*
X120687523Y-100905809D01*
X120687523Y-100524857D01*
X120639904Y-100429619D01*
X120592285Y-100382000D01*
X120497047Y-100334380D01*
X120306571Y-100334380D01*
X120211333Y-100382000D01*
X120163714Y-100429619D01*
X120116095Y-100524857D01*
X120116095Y-100762952D01*
X120163714Y-100858190D01*
X120211333Y-100905809D01*
X120306571Y-100953428D01*
X120497047Y-100953428D01*
X120592285Y-100905809D01*
X120639904Y-100858190D01*
X120687523Y-100762952D01*
%TO.C,J9*%
X198852380Y-133125833D02*
X199566666Y-133125833D01*
X199709523Y-133173452D01*
X199804761Y-133268690D01*
X199852380Y-133411547D01*
X199852380Y-133506785D01*
X199852380Y-132602023D02*
X199852380Y-132411547D01*
X199804761Y-132316309D01*
X199757142Y-132268690D01*
X199614285Y-132173452D01*
X199423809Y-132125833D01*
X199042857Y-132125833D01*
X198947619Y-132173452D01*
X198900000Y-132221071D01*
X198852380Y-132316309D01*
X198852380Y-132506785D01*
X198900000Y-132602023D01*
X198947619Y-132649642D01*
X199042857Y-132697261D01*
X199280952Y-132697261D01*
X199376190Y-132649642D01*
X199423809Y-132602023D01*
X199471428Y-132506785D01*
X199471428Y-132316309D01*
X199423809Y-132221071D01*
X199376190Y-132173452D01*
X199280952Y-132125833D01*
%TO.C,J4*%
X160732380Y-50420833D02*
X161446666Y-50420833D01*
X161589523Y-50468452D01*
X161684761Y-50563690D01*
X161732380Y-50706547D01*
X161732380Y-50801785D01*
X161065714Y-49516071D02*
X161732380Y-49516071D01*
X160684761Y-49754166D02*
X161399047Y-49992261D01*
X161399047Y-49373214D01*
%TO.C,R2*%
X131405333Y-57222380D02*
X131072000Y-56746190D01*
X130833904Y-57222380D02*
X130833904Y-56222380D01*
X131214857Y-56222380D01*
X131310095Y-56270000D01*
X131357714Y-56317619D01*
X131405333Y-56412857D01*
X131405333Y-56555714D01*
X131357714Y-56650952D01*
X131310095Y-56698571D01*
X131214857Y-56746190D01*
X130833904Y-56746190D01*
X131786285Y-56317619D02*
X131833904Y-56270000D01*
X131929142Y-56222380D01*
X132167238Y-56222380D01*
X132262476Y-56270000D01*
X132310095Y-56317619D01*
X132357714Y-56412857D01*
X132357714Y-56508095D01*
X132310095Y-56650952D01*
X131738666Y-57222380D01*
X132357714Y-57222380D01*
%TO.C,JP1*%
X145470666Y-62930380D02*
X145470666Y-63644666D01*
X145423047Y-63787523D01*
X145327809Y-63882761D01*
X145184952Y-63930380D01*
X145089714Y-63930380D01*
X145946857Y-63930380D02*
X145946857Y-62930380D01*
X146327809Y-62930380D01*
X146423047Y-62978000D01*
X146470666Y-63025619D01*
X146518285Y-63120857D01*
X146518285Y-63263714D01*
X146470666Y-63358952D01*
X146423047Y-63406571D01*
X146327809Y-63454190D01*
X145946857Y-63454190D01*
X147470666Y-63930380D02*
X146899238Y-63930380D01*
X147184952Y-63930380D02*
X147184952Y-62930380D01*
X147089714Y-63073238D01*
X146994476Y-63168476D01*
X146899238Y-63216095D01*
%TO.C,H3*%
X113482380Y-50799904D02*
X112482380Y-50799904D01*
X112958571Y-50799904D02*
X112958571Y-50228476D01*
X113482380Y-50228476D02*
X112482380Y-50228476D01*
X112482380Y-49847523D02*
X112482380Y-49228476D01*
X112863333Y-49561809D01*
X112863333Y-49418952D01*
X112910952Y-49323714D01*
X112958571Y-49276095D01*
X113053809Y-49228476D01*
X113291904Y-49228476D01*
X113387142Y-49276095D01*
X113434761Y-49323714D01*
X113482380Y-49418952D01*
X113482380Y-49704666D01*
X113434761Y-49799904D01*
X113387142Y-49847523D01*
%TO.C,U2*%
X97219380Y-77469904D02*
X98028904Y-77469904D01*
X98124142Y-77422285D01*
X98171761Y-77374666D01*
X98219380Y-77279428D01*
X98219380Y-77088952D01*
X98171761Y-76993714D01*
X98124142Y-76946095D01*
X98028904Y-76898476D01*
X97219380Y-76898476D01*
X97314619Y-76469904D02*
X97267000Y-76422285D01*
X97219380Y-76327047D01*
X97219380Y-76088952D01*
X97267000Y-75993714D01*
X97314619Y-75946095D01*
X97409857Y-75898476D01*
X97505095Y-75898476D01*
X97647952Y-75946095D01*
X98219380Y-76517523D01*
X98219380Y-75898476D01*
%TO.C,U8*%
X119116095Y-109224380D02*
X119116095Y-110033904D01*
X119163714Y-110129142D01*
X119211333Y-110176761D01*
X119306571Y-110224380D01*
X119497047Y-110224380D01*
X119592285Y-110176761D01*
X119639904Y-110129142D01*
X119687523Y-110033904D01*
X119687523Y-109224380D01*
X120306571Y-109652952D02*
X120211333Y-109605333D01*
X120163714Y-109557714D01*
X120116095Y-109462476D01*
X120116095Y-109414857D01*
X120163714Y-109319619D01*
X120211333Y-109272000D01*
X120306571Y-109224380D01*
X120497047Y-109224380D01*
X120592285Y-109272000D01*
X120639904Y-109319619D01*
X120687523Y-109414857D01*
X120687523Y-109462476D01*
X120639904Y-109557714D01*
X120592285Y-109605333D01*
X120497047Y-109652952D01*
X120306571Y-109652952D01*
X120211333Y-109700571D01*
X120163714Y-109748190D01*
X120116095Y-109843428D01*
X120116095Y-110033904D01*
X120163714Y-110129142D01*
X120211333Y-110176761D01*
X120306571Y-110224380D01*
X120497047Y-110224380D01*
X120592285Y-110176761D01*
X120639904Y-110129142D01*
X120687523Y-110033904D01*
X120687523Y-109843428D01*
X120639904Y-109748190D01*
X120592285Y-109700571D01*
X120497047Y-109652952D01*
%TO.C,R8*%
X128357333Y-91764380D02*
X128024000Y-91288190D01*
X127785904Y-91764380D02*
X127785904Y-90764380D01*
X128166857Y-90764380D01*
X128262095Y-90812000D01*
X128309714Y-90859619D01*
X128357333Y-90954857D01*
X128357333Y-91097714D01*
X128309714Y-91192952D01*
X128262095Y-91240571D01*
X128166857Y-91288190D01*
X127785904Y-91288190D01*
X128928761Y-91192952D02*
X128833523Y-91145333D01*
X128785904Y-91097714D01*
X128738285Y-91002476D01*
X128738285Y-90954857D01*
X128785904Y-90859619D01*
X128833523Y-90812000D01*
X128928761Y-90764380D01*
X129119238Y-90764380D01*
X129214476Y-90812000D01*
X129262095Y-90859619D01*
X129309714Y-90954857D01*
X129309714Y-91002476D01*
X129262095Y-91097714D01*
X129214476Y-91145333D01*
X129119238Y-91192952D01*
X128928761Y-91192952D01*
X128833523Y-91240571D01*
X128785904Y-91288190D01*
X128738285Y-91383428D01*
X128738285Y-91573904D01*
X128785904Y-91669142D01*
X128833523Y-91716761D01*
X128928761Y-91764380D01*
X129119238Y-91764380D01*
X129214476Y-91716761D01*
X129262095Y-91669142D01*
X129309714Y-91573904D01*
X129309714Y-91383428D01*
X129262095Y-91288190D01*
X129214476Y-91240571D01*
X129119238Y-91192952D01*
%TO.C,JU3*%
X179990857Y-99484380D02*
X179990857Y-100198666D01*
X179943238Y-100341523D01*
X179848000Y-100436761D01*
X179705142Y-100484380D01*
X179609904Y-100484380D01*
X180467047Y-99484380D02*
X180467047Y-100293904D01*
X180514666Y-100389142D01*
X180562285Y-100436761D01*
X180657523Y-100484380D01*
X180848000Y-100484380D01*
X180943238Y-100436761D01*
X180990857Y-100389142D01*
X181038476Y-100293904D01*
X181038476Y-99484380D01*
X181419428Y-99484380D02*
X182038476Y-99484380D01*
X181705142Y-99865333D01*
X181848000Y-99865333D01*
X181943238Y-99912952D01*
X181990857Y-99960571D01*
X182038476Y-100055809D01*
X182038476Y-100293904D01*
X181990857Y-100389142D01*
X181943238Y-100436761D01*
X181848000Y-100484380D01*
X181562285Y-100484380D01*
X181467047Y-100436761D01*
X181419428Y-100389142D01*
%TO.C,R5*%
X128357333Y-118439380D02*
X128024000Y-117963190D01*
X127785904Y-118439380D02*
X127785904Y-117439380D01*
X128166857Y-117439380D01*
X128262095Y-117487000D01*
X128309714Y-117534619D01*
X128357333Y-117629857D01*
X128357333Y-117772714D01*
X128309714Y-117867952D01*
X128262095Y-117915571D01*
X128166857Y-117963190D01*
X127785904Y-117963190D01*
X129262095Y-117439380D02*
X128785904Y-117439380D01*
X128738285Y-117915571D01*
X128785904Y-117867952D01*
X128881142Y-117820333D01*
X129119238Y-117820333D01*
X129214476Y-117867952D01*
X129262095Y-117915571D01*
X129309714Y-118010809D01*
X129309714Y-118248904D01*
X129262095Y-118344142D01*
X129214476Y-118391761D01*
X129119238Y-118439380D01*
X128881142Y-118439380D01*
X128785904Y-118391761D01*
X128738285Y-118344142D01*
%TO.C,R6*%
X128357333Y-109544380D02*
X128024000Y-109068190D01*
X127785904Y-109544380D02*
X127785904Y-108544380D01*
X128166857Y-108544380D01*
X128262095Y-108592000D01*
X128309714Y-108639619D01*
X128357333Y-108734857D01*
X128357333Y-108877714D01*
X128309714Y-108972952D01*
X128262095Y-109020571D01*
X128166857Y-109068190D01*
X127785904Y-109068190D01*
X129214476Y-108544380D02*
X129024000Y-108544380D01*
X128928761Y-108592000D01*
X128881142Y-108639619D01*
X128785904Y-108782476D01*
X128738285Y-108972952D01*
X128738285Y-109353904D01*
X128785904Y-109449142D01*
X128833523Y-109496761D01*
X128928761Y-109544380D01*
X129119238Y-109544380D01*
X129214476Y-109496761D01*
X129262095Y-109449142D01*
X129309714Y-109353904D01*
X129309714Y-109115809D01*
X129262095Y-109020571D01*
X129214476Y-108972952D01*
X129119238Y-108925333D01*
X128928761Y-108925333D01*
X128833523Y-108972952D01*
X128785904Y-109020571D01*
X128738285Y-109115809D01*
%TO.C,J12*%
X102247476Y-127198380D02*
X102247476Y-127912666D01*
X102199857Y-128055523D01*
X102104619Y-128150761D01*
X101961761Y-128198380D01*
X101866523Y-128198380D01*
X103247476Y-128198380D02*
X102676047Y-128198380D01*
X102961761Y-128198380D02*
X102961761Y-127198380D01*
X102866523Y-127341238D01*
X102771285Y-127436476D01*
X102676047Y-127484095D01*
X103628428Y-127293619D02*
X103676047Y-127246000D01*
X103771285Y-127198380D01*
X104009380Y-127198380D01*
X104104619Y-127246000D01*
X104152238Y-127293619D01*
X104199857Y-127388857D01*
X104199857Y-127484095D01*
X104152238Y-127626952D01*
X103580809Y-128198380D01*
X104199857Y-128198380D01*
%TO.C,JP3*%
X135818666Y-62930380D02*
X135818666Y-63644666D01*
X135771047Y-63787523D01*
X135675809Y-63882761D01*
X135532952Y-63930380D01*
X135437714Y-63930380D01*
X136294857Y-63930380D02*
X136294857Y-62930380D01*
X136675809Y-62930380D01*
X136771047Y-62978000D01*
X136818666Y-63025619D01*
X136866285Y-63120857D01*
X136866285Y-63263714D01*
X136818666Y-63358952D01*
X136771047Y-63406571D01*
X136675809Y-63454190D01*
X136294857Y-63454190D01*
X137199619Y-62930380D02*
X137818666Y-62930380D01*
X137485333Y-63311333D01*
X137628190Y-63311333D01*
X137723428Y-63358952D01*
X137771047Y-63406571D01*
X137818666Y-63501809D01*
X137818666Y-63739904D01*
X137771047Y-63835142D01*
X137723428Y-63882761D01*
X137628190Y-63930380D01*
X137342476Y-63930380D01*
X137247238Y-63882761D01*
X137199619Y-63835142D01*
%TO.C,J7*%
X211199166Y-81992380D02*
X211199166Y-82706666D01*
X211151547Y-82849523D01*
X211056309Y-82944761D01*
X210913452Y-82992380D01*
X210818214Y-82992380D01*
X211580119Y-81992380D02*
X212246785Y-81992380D01*
X211818214Y-82992380D01*
%TO.C,J3*%
X149526666Y-58802380D02*
X149526666Y-59516666D01*
X149479047Y-59659523D01*
X149383809Y-59754761D01*
X149240952Y-59802380D01*
X149145714Y-59802380D01*
X149907619Y-58802380D02*
X150526666Y-58802380D01*
X150193333Y-59183333D01*
X150336190Y-59183333D01*
X150431428Y-59230952D01*
X150479047Y-59278571D01*
X150526666Y-59373809D01*
X150526666Y-59611904D01*
X150479047Y-59707142D01*
X150431428Y-59754761D01*
X150336190Y-59802380D01*
X150050476Y-59802380D01*
X149955238Y-59754761D01*
X149907619Y-59707142D01*
%TO.C,R3*%
X128357333Y-136260380D02*
X128024000Y-135784190D01*
X127785904Y-136260380D02*
X127785904Y-135260380D01*
X128166857Y-135260380D01*
X128262095Y-135308000D01*
X128309714Y-135355619D01*
X128357333Y-135450857D01*
X128357333Y-135593714D01*
X128309714Y-135688952D01*
X128262095Y-135736571D01*
X128166857Y-135784190D01*
X127785904Y-135784190D01*
X128690666Y-135260380D02*
X129309714Y-135260380D01*
X128976380Y-135641333D01*
X129119238Y-135641333D01*
X129214476Y-135688952D01*
X129262095Y-135736571D01*
X129309714Y-135831809D01*
X129309714Y-136069904D01*
X129262095Y-136165142D01*
X129214476Y-136212761D01*
X129119238Y-136260380D01*
X128833523Y-136260380D01*
X128738285Y-136212761D01*
X128690666Y-136165142D01*
%TO.C,J8*%
X211199166Y-102312380D02*
X211199166Y-103026666D01*
X211151547Y-103169523D01*
X211056309Y-103264761D01*
X210913452Y-103312380D01*
X210818214Y-103312380D01*
X211818214Y-102740952D02*
X211722976Y-102693333D01*
X211675357Y-102645714D01*
X211627738Y-102550476D01*
X211627738Y-102502857D01*
X211675357Y-102407619D01*
X211722976Y-102360000D01*
X211818214Y-102312380D01*
X212008690Y-102312380D01*
X212103928Y-102360000D01*
X212151547Y-102407619D01*
X212199166Y-102502857D01*
X212199166Y-102550476D01*
X212151547Y-102645714D01*
X212103928Y-102693333D01*
X212008690Y-102740952D01*
X211818214Y-102740952D01*
X211722976Y-102788571D01*
X211675357Y-102836190D01*
X211627738Y-102931428D01*
X211627738Y-103121904D01*
X211675357Y-103217142D01*
X211722976Y-103264761D01*
X211818214Y-103312380D01*
X212008690Y-103312380D01*
X212103928Y-103264761D01*
X212151547Y-103217142D01*
X212199166Y-103121904D01*
X212199166Y-102931428D01*
X212151547Y-102836190D01*
X212103928Y-102788571D01*
X212008690Y-102740952D01*
%TO.C,U6*%
X119116095Y-127004380D02*
X119116095Y-127813904D01*
X119163714Y-127909142D01*
X119211333Y-127956761D01*
X119306571Y-128004380D01*
X119497047Y-128004380D01*
X119592285Y-127956761D01*
X119639904Y-127909142D01*
X119687523Y-127813904D01*
X119687523Y-127004380D01*
X120592285Y-127004380D02*
X120401809Y-127004380D01*
X120306571Y-127052000D01*
X120258952Y-127099619D01*
X120163714Y-127242476D01*
X120116095Y-127432952D01*
X120116095Y-127813904D01*
X120163714Y-127909142D01*
X120211333Y-127956761D01*
X120306571Y-128004380D01*
X120497047Y-128004380D01*
X120592285Y-127956761D01*
X120639904Y-127909142D01*
X120687523Y-127813904D01*
X120687523Y-127575809D01*
X120639904Y-127480571D01*
X120592285Y-127432952D01*
X120497047Y-127385333D01*
X120306571Y-127385333D01*
X120211333Y-127432952D01*
X120163714Y-127480571D01*
X120116095Y-127575809D01*
%TO.C,U4*%
X173432380Y-92201904D02*
X174241904Y-92201904D01*
X174337142Y-92154285D01*
X174384761Y-92106666D01*
X174432380Y-92011428D01*
X174432380Y-91820952D01*
X174384761Y-91725714D01*
X174337142Y-91678095D01*
X174241904Y-91630476D01*
X173432380Y-91630476D01*
X173765714Y-90725714D02*
X174432380Y-90725714D01*
X173384761Y-90963809D02*
X174099047Y-91201904D01*
X174099047Y-90582857D01*
%TO.C,U7*%
X119116095Y-118119380D02*
X119116095Y-118928904D01*
X119163714Y-119024142D01*
X119211333Y-119071761D01*
X119306571Y-119119380D01*
X119497047Y-119119380D01*
X119592285Y-119071761D01*
X119639904Y-119024142D01*
X119687523Y-118928904D01*
X119687523Y-118119380D01*
X120068476Y-118119380D02*
X120735142Y-118119380D01*
X120306571Y-119119380D01*
%TO.C,H4*%
X105918095Y-128332380D02*
X105918095Y-127332380D01*
X105918095Y-127808571D02*
X106489523Y-127808571D01*
X106489523Y-128332380D02*
X106489523Y-127332380D01*
X107394285Y-127665714D02*
X107394285Y-128332380D01*
X107156190Y-127284761D02*
X106918095Y-127999047D01*
X107537142Y-127999047D01*
%TO.C,JP2*%
X140644666Y-62930380D02*
X140644666Y-63644666D01*
X140597047Y-63787523D01*
X140501809Y-63882761D01*
X140358952Y-63930380D01*
X140263714Y-63930380D01*
X141120857Y-63930380D02*
X141120857Y-62930380D01*
X141501809Y-62930380D01*
X141597047Y-62978000D01*
X141644666Y-63025619D01*
X141692285Y-63120857D01*
X141692285Y-63263714D01*
X141644666Y-63358952D01*
X141597047Y-63406571D01*
X141501809Y-63454190D01*
X141120857Y-63454190D01*
X142073238Y-63025619D02*
X142120857Y-62978000D01*
X142216095Y-62930380D01*
X142454190Y-62930380D01*
X142549428Y-62978000D01*
X142597047Y-63025619D01*
X142644666Y-63120857D01*
X142644666Y-63216095D01*
X142597047Y-63358952D01*
X142025619Y-63930380D01*
X142644666Y-63930380D01*
%TO.C,H1*%
X207518095Y-47052380D02*
X207518095Y-46052380D01*
X207518095Y-46528571D02*
X208089523Y-46528571D01*
X208089523Y-47052380D02*
X208089523Y-46052380D01*
X209089523Y-47052380D02*
X208518095Y-47052380D01*
X208803809Y-47052380D02*
X208803809Y-46052380D01*
X208708571Y-46195238D01*
X208613333Y-46290476D01*
X208518095Y-46338095D01*
%TO.C,J5*%
X181052380Y-50420833D02*
X181766666Y-50420833D01*
X181909523Y-50468452D01*
X182004761Y-50563690D01*
X182052380Y-50706547D01*
X182052380Y-50801785D01*
X181052380Y-49468452D02*
X181052380Y-49944642D01*
X181528571Y-49992261D01*
X181480952Y-49944642D01*
X181433333Y-49849404D01*
X181433333Y-49611309D01*
X181480952Y-49516071D01*
X181528571Y-49468452D01*
X181623809Y-49420833D01*
X181861904Y-49420833D01*
X181957142Y-49468452D01*
X182004761Y-49516071D01*
X182052380Y-49611309D01*
X182052380Y-49849404D01*
X182004761Y-49944642D01*
X181957142Y-49992261D01*
%TO.C,C5*%
X172497142Y-97499166D02*
X172544761Y-97546785D01*
X172592380Y-97689642D01*
X172592380Y-97784880D01*
X172544761Y-97927738D01*
X172449523Y-98022976D01*
X172354285Y-98070595D01*
X172163809Y-98118214D01*
X172020952Y-98118214D01*
X171830476Y-98070595D01*
X171735238Y-98022976D01*
X171640000Y-97927738D01*
X171592380Y-97784880D01*
X171592380Y-97689642D01*
X171640000Y-97546785D01*
X171687619Y-97499166D01*
X171592380Y-96594404D02*
X171592380Y-97070595D01*
X172068571Y-97118214D01*
X172020952Y-97070595D01*
X171973333Y-96975357D01*
X171973333Y-96737261D01*
X172020952Y-96642023D01*
X172068571Y-96594404D01*
X172163809Y-96546785D01*
X172401904Y-96546785D01*
X172497142Y-96594404D01*
X172544761Y-96642023D01*
X172592380Y-96737261D01*
X172592380Y-96975357D01*
X172544761Y-97070595D01*
X172497142Y-97118214D01*
%TO.C,U12*%
X118639904Y-73664380D02*
X118639904Y-74473904D01*
X118687523Y-74569142D01*
X118735142Y-74616761D01*
X118830380Y-74664380D01*
X119020857Y-74664380D01*
X119116095Y-74616761D01*
X119163714Y-74569142D01*
X119211333Y-74473904D01*
X119211333Y-73664380D01*
X120211333Y-74664380D02*
X119639904Y-74664380D01*
X119925619Y-74664380D02*
X119925619Y-73664380D01*
X119830380Y-73807238D01*
X119735142Y-73902476D01*
X119639904Y-73950095D01*
X120592285Y-73759619D02*
X120639904Y-73712000D01*
X120735142Y-73664380D01*
X120973238Y-73664380D01*
X121068476Y-73712000D01*
X121116095Y-73759619D01*
X121163714Y-73854857D01*
X121163714Y-73950095D01*
X121116095Y-74092952D01*
X120544666Y-74664380D01*
X121163714Y-74664380D01*
%TO.C,U5*%
X119116095Y-135940380D02*
X119116095Y-136749904D01*
X119163714Y-136845142D01*
X119211333Y-136892761D01*
X119306571Y-136940380D01*
X119497047Y-136940380D01*
X119592285Y-136892761D01*
X119639904Y-136845142D01*
X119687523Y-136749904D01*
X119687523Y-135940380D01*
X120639904Y-135940380D02*
X120163714Y-135940380D01*
X120116095Y-136416571D01*
X120163714Y-136368952D01*
X120258952Y-136321333D01*
X120497047Y-136321333D01*
X120592285Y-136368952D01*
X120639904Y-136416571D01*
X120687523Y-136511809D01*
X120687523Y-136749904D01*
X120639904Y-136845142D01*
X120592285Y-136892761D01*
X120497047Y-136940380D01*
X120258952Y-136940380D01*
X120163714Y-136892761D01*
X120116095Y-136845142D01*
%TO.C,U10*%
X118639904Y-91444380D02*
X118639904Y-92253904D01*
X118687523Y-92349142D01*
X118735142Y-92396761D01*
X118830380Y-92444380D01*
X119020857Y-92444380D01*
X119116095Y-92396761D01*
X119163714Y-92349142D01*
X119211333Y-92253904D01*
X119211333Y-91444380D01*
X120211333Y-92444380D02*
X119639904Y-92444380D01*
X119925619Y-92444380D02*
X119925619Y-91444380D01*
X119830380Y-91587238D01*
X119735142Y-91682476D01*
X119639904Y-91730095D01*
X120830380Y-91444380D02*
X120925619Y-91444380D01*
X121020857Y-91492000D01*
X121068476Y-91539619D01*
X121116095Y-91634857D01*
X121163714Y-91825333D01*
X121163714Y-92063428D01*
X121116095Y-92253904D01*
X121068476Y-92349142D01*
X121020857Y-92396761D01*
X120925619Y-92444380D01*
X120830380Y-92444380D01*
X120735142Y-92396761D01*
X120687523Y-92349142D01*
X120639904Y-92253904D01*
X120592285Y-92063428D01*
X120592285Y-91825333D01*
X120639904Y-91634857D01*
X120687523Y-91539619D01*
X120735142Y-91492000D01*
X120830380Y-91444380D01*
%TO.C,R10*%
X127881142Y-73984380D02*
X127547809Y-73508190D01*
X127309714Y-73984380D02*
X127309714Y-72984380D01*
X127690666Y-72984380D01*
X127785904Y-73032000D01*
X127833523Y-73079619D01*
X127881142Y-73174857D01*
X127881142Y-73317714D01*
X127833523Y-73412952D01*
X127785904Y-73460571D01*
X127690666Y-73508190D01*
X127309714Y-73508190D01*
X128833523Y-73984380D02*
X128262095Y-73984380D01*
X128547809Y-73984380D02*
X128547809Y-72984380D01*
X128452571Y-73127238D01*
X128357333Y-73222476D01*
X128262095Y-73270095D01*
X129452571Y-72984380D02*
X129547809Y-72984380D01*
X129643047Y-73032000D01*
X129690666Y-73079619D01*
X129738285Y-73174857D01*
X129785904Y-73365333D01*
X129785904Y-73603428D01*
X129738285Y-73793904D01*
X129690666Y-73889142D01*
X129643047Y-73936761D01*
X129547809Y-73984380D01*
X129452571Y-73984380D01*
X129357333Y-73936761D01*
X129309714Y-73889142D01*
X129262095Y-73793904D01*
X129214476Y-73603428D01*
X129214476Y-73365333D01*
X129262095Y-73174857D01*
X129309714Y-73079619D01*
X129357333Y-73032000D01*
X129452571Y-72984380D01*
%TO.C,R9*%
X128357333Y-82874380D02*
X128024000Y-82398190D01*
X127785904Y-82874380D02*
X127785904Y-81874380D01*
X128166857Y-81874380D01*
X128262095Y-81922000D01*
X128309714Y-81969619D01*
X128357333Y-82064857D01*
X128357333Y-82207714D01*
X128309714Y-82302952D01*
X128262095Y-82350571D01*
X128166857Y-82398190D01*
X127785904Y-82398190D01*
X128833523Y-82874380D02*
X129024000Y-82874380D01*
X129119238Y-82826761D01*
X129166857Y-82779142D01*
X129262095Y-82636285D01*
X129309714Y-82445809D01*
X129309714Y-82064857D01*
X129262095Y-81969619D01*
X129214476Y-81922000D01*
X129119238Y-81874380D01*
X128928761Y-81874380D01*
X128833523Y-81922000D01*
X128785904Y-81969619D01*
X128738285Y-82064857D01*
X128738285Y-82302952D01*
X128785904Y-82398190D01*
X128833523Y-82445809D01*
X128928761Y-82493428D01*
X129119238Y-82493428D01*
X129214476Y-82445809D01*
X129262095Y-82398190D01*
X129309714Y-82302952D01*
%TO.C,R4*%
X128357333Y-127324380D02*
X128024000Y-126848190D01*
X127785904Y-127324380D02*
X127785904Y-126324380D01*
X128166857Y-126324380D01*
X128262095Y-126372000D01*
X128309714Y-126419619D01*
X128357333Y-126514857D01*
X128357333Y-126657714D01*
X128309714Y-126752952D01*
X128262095Y-126800571D01*
X128166857Y-126848190D01*
X127785904Y-126848190D01*
X129214476Y-126657714D02*
X129214476Y-127324380D01*
X128976380Y-126276761D02*
X128738285Y-126991047D01*
X129357333Y-126991047D01*
%TO.C,U3*%
X151558095Y-88502380D02*
X151558095Y-89311904D01*
X151605714Y-89407142D01*
X151653333Y-89454761D01*
X151748571Y-89502380D01*
X151939047Y-89502380D01*
X152034285Y-89454761D01*
X152081904Y-89407142D01*
X152129523Y-89311904D01*
X152129523Y-88502380D01*
X152510476Y-88502380D02*
X153129523Y-88502380D01*
X152796190Y-88883333D01*
X152939047Y-88883333D01*
X153034285Y-88930952D01*
X153081904Y-88978571D01*
X153129523Y-89073809D01*
X153129523Y-89311904D01*
X153081904Y-89407142D01*
X153034285Y-89454761D01*
X152939047Y-89502380D01*
X152653333Y-89502380D01*
X152558095Y-89454761D01*
X152510476Y-89407142D01*
%TO.C,J1*%
X101864666Y-51742880D02*
X101864666Y-52457166D01*
X101817047Y-52600023D01*
X101721809Y-52695261D01*
X101578952Y-52742880D01*
X101483714Y-52742880D01*
X102864666Y-52742880D02*
X102293238Y-52742880D01*
X102578952Y-52742880D02*
X102578952Y-51742880D01*
X102483714Y-51885738D01*
X102388476Y-51980976D01*
X102293238Y-52028595D01*
%TO.C,R7*%
X128357333Y-100654380D02*
X128024000Y-100178190D01*
X127785904Y-100654380D02*
X127785904Y-99654380D01*
X128166857Y-99654380D01*
X128262095Y-99702000D01*
X128309714Y-99749619D01*
X128357333Y-99844857D01*
X128357333Y-99987714D01*
X128309714Y-100082952D01*
X128262095Y-100130571D01*
X128166857Y-100178190D01*
X127785904Y-100178190D01*
X128690666Y-99654380D02*
X129357333Y-99654380D01*
X128928761Y-100654380D01*
%TO.C,J10*%
X178532380Y-133602023D02*
X179246666Y-133602023D01*
X179389523Y-133649642D01*
X179484761Y-133744880D01*
X179532380Y-133887738D01*
X179532380Y-133982976D01*
X179532380Y-132602023D02*
X179532380Y-133173452D01*
X179532380Y-132887738D02*
X178532380Y-132887738D01*
X178675238Y-132982976D01*
X178770476Y-133078214D01*
X178818095Y-133173452D01*
X178532380Y-131982976D02*
X178532380Y-131887738D01*
X178580000Y-131792500D01*
X178627619Y-131744880D01*
X178722857Y-131697261D01*
X178913333Y-131649642D01*
X179151428Y-131649642D01*
X179341904Y-131697261D01*
X179437142Y-131744880D01*
X179484761Y-131792500D01*
X179532380Y-131887738D01*
X179532380Y-131982976D01*
X179484761Y-132078214D01*
X179437142Y-132125833D01*
X179341904Y-132173452D01*
X179151428Y-132221071D01*
X178913333Y-132221071D01*
X178722857Y-132173452D01*
X178627619Y-132125833D01*
X178580000Y-132078214D01*
X178532380Y-131982976D01*
%TO.C,U1*%
X97290380Y-61721904D02*
X98099904Y-61721904D01*
X98195142Y-61674285D01*
X98242761Y-61626666D01*
X98290380Y-61531428D01*
X98290380Y-61340952D01*
X98242761Y-61245714D01*
X98195142Y-61198095D01*
X98099904Y-61150476D01*
X97290380Y-61150476D01*
X98290380Y-60150476D02*
X98290380Y-60721904D01*
X98290380Y-60436190D02*
X97290380Y-60436190D01*
X97433238Y-60531428D01*
X97528476Y-60626666D01*
X97576095Y-60721904D01*
D11*
%TO.C,C3*%
X119714000Y-60198000D02*
G75*
G03*
X119714000Y-60198000I-2620000J0D01*
G01*
%TO.C,C2*%
X111586000Y-64754000D02*
G75*
G03*
X111586000Y-64754000I-2620000J0D01*
G01*
%TO.C,C1*%
X111586000Y-56896000D02*
G75*
G03*
X111586000Y-56896000I-2620000J0D01*
G01*
%TO.C,J11*%
X155970000Y-123942500D02*
X155970000Y-127692500D01*
X151610000Y-123242500D02*
X150610000Y-123242500D01*
X155970000Y-140562500D02*
X155970000Y-132592500D01*
X150610000Y-123242500D02*
X151110000Y-123742500D01*
X143750000Y-140562500D02*
X143750000Y-132592500D01*
X151110000Y-123742500D02*
X151610000Y-123242500D01*
X143750000Y-123942500D02*
X155970000Y-123942500D01*
X143750000Y-140562500D02*
X155970000Y-140562500D01*
X143750000Y-123942500D02*
X143750000Y-127692500D01*
%TO.C,J6*%
X219302500Y-77230000D02*
X211332500Y-77230000D01*
X202682500Y-77230000D02*
X202682500Y-65010000D01*
X202482500Y-69870000D02*
X201982500Y-69370000D01*
X219302500Y-65010000D02*
X211332500Y-65010000D01*
X202682500Y-65010000D02*
X206432500Y-65010000D01*
X201982500Y-70370000D02*
X202482500Y-69870000D01*
X219302500Y-77230000D02*
X219302500Y-65010000D01*
X201982500Y-69370000D02*
X201982500Y-70370000D01*
X202682500Y-77230000D02*
X206432500Y-77230000D01*
%TO.C,U11*%
X122528000Y-82102000D02*
X122528000Y-76902000D01*
X120878000Y-82102000D02*
X122528000Y-82102000D01*
X117228000Y-76902000D02*
X117228000Y-82102000D01*
X122528000Y-76902000D02*
X117228000Y-76902000D01*
X117228000Y-82102000D02*
X118878000Y-82102000D01*
X120878000Y-82102000D02*
G75*
G03*
X118878000Y-82102000I-1000000J0D01*
G01*
%TO.C,JU1*%
X171898000Y-83058000D02*
X174558000Y-83058000D01*
X171898000Y-80458000D02*
X173228000Y-80458000D01*
X171898000Y-81788000D02*
X171898000Y-80458000D01*
X171898000Y-83118000D02*
X174558000Y-83118000D01*
X174558000Y-83058000D02*
X174558000Y-83118000D01*
X171898000Y-83058000D02*
X171898000Y-83118000D01*
%TO.C,JU4*%
X176082000Y-76708000D02*
X176082000Y-76768000D01*
X173422000Y-76768000D02*
X176082000Y-76768000D01*
X173422000Y-75438000D02*
X173422000Y-74108000D01*
X173422000Y-76708000D02*
X173422000Y-76768000D01*
X173422000Y-76708000D02*
X176082000Y-76708000D01*
X173422000Y-74108000D02*
X174752000Y-74108000D01*
%TO.C,R1*%
X136371064Y-59155000D02*
X135916936Y-59155000D01*
X136371064Y-57685000D02*
X135916936Y-57685000D01*
%TO.C,C4*%
X171800000Y-86486267D02*
X171800000Y-86193733D01*
X172820000Y-86486267D02*
X172820000Y-86193733D01*
%TO.C,J2*%
X134753000Y-48286000D02*
X134753000Y-42286000D01*
X130433000Y-42286000D02*
X130433000Y-48286000D01*
X125013000Y-48286000D02*
X125013000Y-42286000D01*
X125353000Y-42286000D02*
X125353000Y-48286000D01*
X132973000Y-51343071D02*
X132973000Y-50946000D01*
X125133000Y-48286000D02*
X125133000Y-42286000D01*
X124653000Y-48286000D02*
X124653000Y-42286000D01*
X129673000Y-51343071D02*
X129673000Y-50946000D01*
X127133000Y-53883071D02*
X127133000Y-53428929D01*
X136463000Y-48286000D02*
X123643000Y-48286000D01*
X126243000Y-50946000D02*
X126243000Y-48286000D01*
X130433000Y-51343071D02*
X130433000Y-50946000D01*
X124593000Y-48286000D02*
X124593000Y-42286000D01*
X125353000Y-53816000D02*
X125353000Y-53428929D01*
X132973000Y-42286000D02*
X132973000Y-48286000D01*
X132213000Y-42286000D02*
X132973000Y-42286000D01*
X134753000Y-42286000D02*
X135513000Y-42286000D01*
X133863000Y-50946000D02*
X133863000Y-48286000D01*
X127893000Y-42286000D02*
X127893000Y-48286000D01*
X127893000Y-51343071D02*
X127893000Y-50946000D01*
X130433000Y-53883071D02*
X130433000Y-53428929D01*
X124773000Y-48286000D02*
X124773000Y-42286000D01*
X132213000Y-53883071D02*
X132213000Y-53428929D01*
X132213000Y-48286000D02*
X132213000Y-42286000D01*
X124593000Y-53816000D02*
X124593000Y-53428929D01*
X123703000Y-56196000D02*
X123703000Y-54926000D01*
X124973000Y-56196000D02*
X123703000Y-56196000D01*
X129673000Y-53883071D02*
X129673000Y-53428929D01*
X124593000Y-42286000D02*
X125353000Y-42286000D01*
X127133000Y-42286000D02*
X127893000Y-42286000D01*
X129673000Y-42286000D02*
X130433000Y-42286000D01*
X135513000Y-51343071D02*
X135513000Y-50946000D01*
X135513000Y-42286000D02*
X135513000Y-48286000D01*
X128783000Y-50946000D02*
X128783000Y-48286000D01*
X124893000Y-48286000D02*
X124893000Y-42286000D01*
X125353000Y-51343071D02*
X125353000Y-50946000D01*
X123643000Y-50946000D02*
X136463000Y-50946000D01*
X132973000Y-53883071D02*
X132973000Y-53428929D01*
X136463000Y-50946000D02*
X136463000Y-48286000D01*
X131323000Y-50946000D02*
X131323000Y-48286000D01*
X125253000Y-48286000D02*
X125253000Y-42286000D01*
X132213000Y-51343071D02*
X132213000Y-50946000D01*
X123643000Y-48286000D02*
X123643000Y-50946000D01*
X127133000Y-51343071D02*
X127133000Y-50946000D01*
X127133000Y-48286000D02*
X127133000Y-42286000D01*
X135513000Y-53883071D02*
X135513000Y-53428929D01*
X127893000Y-53883071D02*
X127893000Y-53428929D01*
X134753000Y-53883071D02*
X134753000Y-53428929D01*
X124593000Y-51343071D02*
X124593000Y-50946000D01*
X129673000Y-48286000D02*
X129673000Y-42286000D01*
X134753000Y-51343071D02*
X134753000Y-50946000D01*
%TO.C,JU2*%
X161660000Y-84328000D02*
X164320000Y-84328000D01*
X164320000Y-84328000D02*
X164320000Y-84388000D01*
X161660000Y-83058000D02*
X161660000Y-81728000D01*
X161660000Y-84388000D02*
X164320000Y-84388000D01*
X161660000Y-81728000D02*
X162990000Y-81728000D01*
X161660000Y-84328000D02*
X161660000Y-84388000D01*
%TO.C,U9*%
X117228000Y-94682000D02*
X117228000Y-99882000D01*
X122528000Y-99882000D02*
X122528000Y-94682000D01*
X120878000Y-99882000D02*
X122528000Y-99882000D01*
X122528000Y-94682000D02*
X117228000Y-94682000D01*
X117228000Y-99882000D02*
X118878000Y-99882000D01*
X120878000Y-99882000D02*
G75*
G03*
X118878000Y-99882000I-1000000J0D01*
G01*
%TO.C,J9*%
X184390000Y-123942500D02*
X184390000Y-127692500D01*
X184390000Y-140562500D02*
X196610000Y-140562500D01*
X184390000Y-140562500D02*
X184390000Y-132592500D01*
X184390000Y-123942500D02*
X196610000Y-123942500D01*
X191750000Y-123742500D02*
X192250000Y-123242500D01*
X196610000Y-140562500D02*
X196610000Y-132592500D01*
X192250000Y-123242500D02*
X191250000Y-123242500D01*
X191250000Y-123242500D02*
X191750000Y-123742500D01*
X196610000Y-123942500D02*
X196610000Y-127692500D01*
%TO.C,J4*%
X164070000Y-42317500D02*
X164070000Y-50287500D01*
X169430000Y-59637500D02*
X168930000Y-59137500D01*
X164070000Y-58937500D02*
X164070000Y-55187500D01*
X176290000Y-58937500D02*
X164070000Y-58937500D01*
X176290000Y-42317500D02*
X176290000Y-50287500D01*
X168930000Y-59137500D02*
X168430000Y-59637500D01*
X168430000Y-59637500D02*
X169430000Y-59637500D01*
X176290000Y-58937500D02*
X176290000Y-55187500D01*
X176290000Y-42317500D02*
X164070000Y-42317500D01*
%TO.C,R2*%
X131344936Y-59155000D02*
X131799064Y-59155000D01*
X131344936Y-57685000D02*
X131799064Y-57685000D01*
%TO.C,JP1*%
X144704000Y-66778000D02*
X145304000Y-66778000D01*
X145004000Y-66478000D02*
X145304000Y-66778000D01*
X145004000Y-66478000D02*
X144704000Y-66778000D01*
X148354000Y-64278000D02*
X148354000Y-66278000D01*
X144254000Y-64278000D02*
X148354000Y-64278000D01*
X148354000Y-66278000D02*
X144254000Y-66278000D01*
X144254000Y-66278000D02*
X144254000Y-64278000D01*
%TO.C,U2*%
X98767000Y-81828000D02*
X103408000Y-81828000D01*
X98767000Y-74857000D02*
X100277000Y-74857000D01*
X98767000Y-81828000D02*
X98767000Y-71588000D01*
X103408000Y-81828000D02*
X103408000Y-71588000D01*
X98767000Y-71588000D02*
X103408000Y-71588000D01*
X100277000Y-81828000D02*
X100277000Y-71588000D01*
X98767000Y-78558000D02*
X100277000Y-78558000D01*
%TO.C,U8*%
X122528000Y-108772000D02*
X122528000Y-103572000D01*
X122528000Y-103572000D02*
X117228000Y-103572000D01*
X117228000Y-103572000D02*
X117228000Y-108772000D01*
X117228000Y-108772000D02*
X118878000Y-108772000D01*
X120878000Y-108772000D02*
X122528000Y-108772000D01*
X120878000Y-108772000D02*
G75*
G03*
X118878000Y-108772000I-1000000J0D01*
G01*
%TO.C,R8*%
X128751064Y-88927000D02*
X128296936Y-88927000D01*
X128751064Y-90397000D02*
X128296936Y-90397000D01*
%TO.C,JU3*%
X182178000Y-103632000D02*
X182178000Y-103692000D01*
X179518000Y-101032000D02*
X180848000Y-101032000D01*
X179518000Y-103632000D02*
X182178000Y-103632000D01*
X179518000Y-103632000D02*
X179518000Y-103692000D01*
X179518000Y-102362000D02*
X179518000Y-101032000D01*
X179518000Y-103692000D02*
X182178000Y-103692000D01*
%TO.C,R5*%
X128751064Y-117072000D02*
X128296936Y-117072000D01*
X128751064Y-115602000D02*
X128296936Y-115602000D01*
%TO.C,R6*%
X128751064Y-108177000D02*
X128296936Y-108177000D01*
X128751064Y-106707000D02*
X128296936Y-106707000D01*
%TO.C,J12*%
X106332000Y-125096000D02*
X106002000Y-125096000D01*
X97342000Y-122556000D02*
X103342000Y-122556000D01*
X108712000Y-126746000D02*
X107442000Y-126746000D01*
X106002000Y-116586000D02*
X103342000Y-116586000D01*
X97342000Y-89536000D02*
X103342000Y-89536000D01*
X106399071Y-110616000D02*
X106002000Y-110616000D01*
X103342000Y-125436000D02*
X97342000Y-125436000D01*
X106002000Y-111506000D02*
X103342000Y-111506000D01*
X106399071Y-94616000D02*
X106002000Y-94616000D01*
X106002000Y-88646000D02*
X103342000Y-88646000D01*
X106002000Y-126806000D02*
X106002000Y-86046000D01*
X106399071Y-123316000D02*
X106002000Y-123316000D01*
X97342000Y-112396000D02*
X103342000Y-112396000D01*
X106002000Y-119126000D02*
X103342000Y-119126000D01*
X103342000Y-102996000D02*
X97342000Y-102996000D01*
X97342000Y-99696000D02*
X103342000Y-99696000D01*
X97342000Y-117476000D02*
X103342000Y-117476000D01*
X106399071Y-87756000D02*
X106002000Y-87756000D01*
X106399071Y-120016000D02*
X106002000Y-120016000D01*
X106399071Y-108076000D02*
X106002000Y-108076000D01*
X103342000Y-92836000D02*
X97342000Y-92836000D01*
X97342000Y-110616000D02*
X97342000Y-109856000D01*
X106399071Y-89536000D02*
X106002000Y-89536000D01*
X106399071Y-100456000D02*
X106002000Y-100456000D01*
X97342000Y-118236000D02*
X97342000Y-117476000D01*
X97342000Y-90296000D02*
X97342000Y-89536000D01*
X103342000Y-125856000D02*
X97342000Y-125856000D01*
X106399071Y-97916000D02*
X106002000Y-97916000D01*
X106399071Y-122556000D02*
X106002000Y-122556000D01*
X97342000Y-102236000D02*
X103342000Y-102236000D01*
X106332000Y-125856000D02*
X106002000Y-125856000D01*
X97342000Y-104776000D02*
X103342000Y-104776000D01*
X97342000Y-105536000D02*
X97342000Y-104776000D01*
X106002000Y-108966000D02*
X103342000Y-108966000D01*
X106399071Y-95376000D02*
X106002000Y-95376000D01*
X103342000Y-118236000D02*
X97342000Y-118236000D01*
X97342000Y-115696000D02*
X97342000Y-114936000D01*
X106399071Y-92836000D02*
X106002000Y-92836000D01*
X106002000Y-96266000D02*
X103342000Y-96266000D01*
X103342000Y-86046000D02*
X103342000Y-126806000D01*
X106399071Y-102996000D02*
X106002000Y-102996000D01*
X106399071Y-120776000D02*
X106002000Y-120776000D01*
X106399071Y-97156000D02*
X106002000Y-97156000D01*
X108712000Y-125476000D02*
X108712000Y-126746000D01*
X106002000Y-124206000D02*
X103342000Y-124206000D01*
X103342000Y-125316000D02*
X97342000Y-125316000D01*
X97342000Y-97916000D02*
X97342000Y-97156000D01*
X106399071Y-115696000D02*
X106002000Y-115696000D01*
X106002000Y-91186000D02*
X103342000Y-91186000D01*
X106399071Y-113156000D02*
X106002000Y-113156000D01*
X106002000Y-106426000D02*
X103342000Y-106426000D01*
X97342000Y-120776000D02*
X97342000Y-120016000D01*
X103342000Y-105536000D02*
X97342000Y-105536000D01*
X97342000Y-87756000D02*
X97342000Y-86996000D01*
X103342000Y-125796000D02*
X97342000Y-125796000D01*
X103342000Y-110616000D02*
X97342000Y-110616000D01*
X103342000Y-126806000D02*
X106002000Y-126806000D01*
X103342000Y-95376000D02*
X97342000Y-95376000D01*
X103342000Y-108076000D02*
X97342000Y-108076000D01*
X97342000Y-114936000D02*
X103342000Y-114936000D01*
X97342000Y-102996000D02*
X97342000Y-102236000D01*
X103342000Y-123316000D02*
X97342000Y-123316000D01*
X97342000Y-86996000D02*
X103342000Y-86996000D01*
X97342000Y-125856000D02*
X97342000Y-125096000D01*
X103342000Y-97916000D02*
X97342000Y-97916000D01*
X106399071Y-99696000D02*
X106002000Y-99696000D01*
X106002000Y-86046000D02*
X103342000Y-86046000D01*
X106399071Y-90296000D02*
X106002000Y-90296000D01*
X106399071Y-104776000D02*
X106002000Y-104776000D01*
X106399071Y-86996000D02*
X106002000Y-86996000D01*
X106002000Y-103886000D02*
X103342000Y-103886000D01*
X103342000Y-113156000D02*
X97342000Y-113156000D01*
X97342000Y-94616000D02*
X103342000Y-94616000D01*
X106399071Y-107316000D02*
X106002000Y-107316000D01*
X106399071Y-118236000D02*
X106002000Y-118236000D01*
X97342000Y-100456000D02*
X97342000Y-99696000D01*
X103342000Y-87756000D02*
X97342000Y-87756000D01*
X97342000Y-97156000D02*
X103342000Y-97156000D01*
X106399071Y-114936000D02*
X106002000Y-114936000D01*
X106002000Y-101346000D02*
X103342000Y-101346000D01*
X103342000Y-90296000D02*
X97342000Y-90296000D01*
X103342000Y-120776000D02*
X97342000Y-120776000D01*
X97342000Y-92836000D02*
X97342000Y-92076000D01*
X106399071Y-117476000D02*
X106002000Y-117476000D01*
X97342000Y-125096000D02*
X103342000Y-125096000D01*
X106002000Y-114046000D02*
X103342000Y-114046000D01*
X97342000Y-113156000D02*
X97342000Y-112396000D01*
X97342000Y-123316000D02*
X97342000Y-122556000D01*
X103342000Y-100456000D02*
X97342000Y-100456000D01*
X106002000Y-121666000D02*
X103342000Y-121666000D01*
X97342000Y-120016000D02*
X103342000Y-120016000D01*
X97342000Y-95376000D02*
X97342000Y-94616000D01*
X106399071Y-102236000D02*
X106002000Y-102236000D01*
X97342000Y-109856000D02*
X103342000Y-109856000D01*
X97342000Y-108076000D02*
X97342000Y-107316000D01*
X103342000Y-125676000D02*
X97342000Y-125676000D01*
X106399071Y-92076000D02*
X106002000Y-92076000D01*
X106002000Y-93726000D02*
X103342000Y-93726000D01*
X106399071Y-112396000D02*
X106002000Y-112396000D01*
X97342000Y-107316000D02*
X103342000Y-107316000D01*
X106002000Y-98806000D02*
X103342000Y-98806000D01*
X97342000Y-92076000D02*
X103342000Y-92076000D01*
X103342000Y-125196000D02*
X97342000Y-125196000D01*
X106399071Y-109856000D02*
X106002000Y-109856000D01*
X103342000Y-125556000D02*
X97342000Y-125556000D01*
X106399071Y-105536000D02*
X106002000Y-105536000D01*
X103342000Y-115696000D02*
X97342000Y-115696000D01*
%TO.C,JP3*%
X135052000Y-66778000D02*
X135652000Y-66778000D01*
X134602000Y-66278000D02*
X134602000Y-64278000D01*
X135352000Y-66478000D02*
X135652000Y-66778000D01*
X135352000Y-66478000D02*
X135052000Y-66778000D01*
X134602000Y-64278000D02*
X138702000Y-64278000D01*
X138702000Y-64278000D02*
X138702000Y-66278000D01*
X138702000Y-66278000D02*
X134602000Y-66278000D01*
%TO.C,J7*%
X201982500Y-90690000D02*
X202482500Y-90190000D01*
X202682500Y-97550000D02*
X206432500Y-97550000D01*
X219302500Y-97550000D02*
X211332500Y-97550000D01*
X202682500Y-85330000D02*
X206432500Y-85330000D01*
X201982500Y-89690000D02*
X201982500Y-90690000D01*
X219302500Y-97550000D02*
X219302500Y-85330000D01*
X219302500Y-85330000D02*
X211332500Y-85330000D01*
X202682500Y-97550000D02*
X202682500Y-85330000D01*
X202482500Y-90190000D02*
X201982500Y-89690000D01*
%TO.C,J3*%
X154260000Y-58760000D02*
X152460000Y-58760000D01*
X143200000Y-58540000D02*
X143200000Y-55210000D01*
X142550000Y-43580000D02*
X143200000Y-43580000D01*
X143200000Y-51690000D02*
X143200000Y-43580000D01*
X157170000Y-43060000D02*
X142550000Y-43060000D01*
X156520000Y-43580000D02*
X156520000Y-51690000D01*
X156520000Y-43580000D02*
X157170000Y-43580000D01*
X156520000Y-58540000D02*
X143200000Y-58540000D01*
X156520000Y-58540000D02*
X156520000Y-55210000D01*
X142550000Y-43060000D02*
X142550000Y-43580000D01*
X157170000Y-43580000D02*
X157170000Y-43060000D01*
%TO.C,R3*%
X128751064Y-133423000D02*
X128296936Y-133423000D01*
X128751064Y-134893000D02*
X128296936Y-134893000D01*
%TO.C,J8*%
X219302500Y-117870000D02*
X219302500Y-105650000D01*
X202482500Y-110510000D02*
X201982500Y-110010000D01*
X219302500Y-117870000D02*
X211332500Y-117870000D01*
X201982500Y-111010000D02*
X202482500Y-110510000D01*
X202682500Y-117870000D02*
X206432500Y-117870000D01*
X219302500Y-105650000D02*
X211332500Y-105650000D01*
X202682500Y-105650000D02*
X206432500Y-105650000D01*
X201982500Y-110010000D02*
X201982500Y-111010000D01*
X202682500Y-117870000D02*
X202682500Y-105650000D01*
%TO.C,U6*%
X122528000Y-121352000D02*
X117228000Y-121352000D01*
X122528000Y-126552000D02*
X122528000Y-121352000D01*
X117228000Y-126552000D02*
X118878000Y-126552000D01*
X117228000Y-121352000D02*
X117228000Y-126552000D01*
X120878000Y-126552000D02*
X122528000Y-126552000D01*
X120878000Y-126552000D02*
G75*
G03*
X118878000Y-126552000I-1000000J0D01*
G01*
%TO.C,U4*%
X167570000Y-89305000D02*
X167570000Y-88830000D01*
X172790000Y-89305000D02*
X172790000Y-88830000D01*
X167570000Y-93575000D02*
X167570000Y-94050000D01*
X172790000Y-93575000D02*
X172790000Y-94050000D01*
X172790000Y-94050000D02*
X172315000Y-94050000D01*
X167570000Y-88830000D02*
X168045000Y-88830000D01*
X167570000Y-94050000D02*
X168045000Y-94050000D01*
%TO.C,U7*%
X117228000Y-117667000D02*
X118878000Y-117667000D01*
X120878000Y-117667000D02*
X122528000Y-117667000D01*
X117228000Y-112467000D02*
X117228000Y-117667000D01*
X122528000Y-117667000D02*
X122528000Y-112467000D01*
X122528000Y-112467000D02*
X117228000Y-112467000D01*
X120878000Y-117667000D02*
G75*
G03*
X118878000Y-117667000I-1000000J0D01*
G01*
%TO.C,JP2*%
X139428000Y-64278000D02*
X143528000Y-64278000D01*
X139428000Y-66278000D02*
X139428000Y-64278000D01*
X143528000Y-66278000D02*
X139428000Y-66278000D01*
X140178000Y-66478000D02*
X140478000Y-66778000D01*
X139878000Y-66778000D02*
X140478000Y-66778000D01*
X143528000Y-64278000D02*
X143528000Y-66278000D01*
X140178000Y-66478000D02*
X139878000Y-66778000D01*
%TO.C,J5*%
X184390000Y-42317500D02*
X184390000Y-50287500D01*
X196610000Y-42317500D02*
X184390000Y-42317500D01*
X184390000Y-58937500D02*
X184390000Y-55187500D01*
X188750000Y-59637500D02*
X189750000Y-59637500D01*
X196610000Y-42317500D02*
X196610000Y-50287500D01*
X196610000Y-58937500D02*
X196610000Y-55187500D01*
X196610000Y-58937500D02*
X184390000Y-58937500D01*
X189250000Y-59137500D02*
X188750000Y-59637500D01*
X189750000Y-59637500D02*
X189250000Y-59137500D01*
%TO.C,C5*%
X170200000Y-97186233D02*
X170200000Y-97478767D01*
X171220000Y-97186233D02*
X171220000Y-97478767D01*
%TO.C,U12*%
X120878000Y-73212000D02*
X122528000Y-73212000D01*
X122528000Y-68012000D02*
X117228000Y-68012000D01*
X117228000Y-73212000D02*
X118878000Y-73212000D01*
X122528000Y-73212000D02*
X122528000Y-68012000D01*
X117228000Y-68012000D02*
X117228000Y-73212000D01*
X120878000Y-73212000D02*
G75*
G03*
X118878000Y-73212000I-1000000J0D01*
G01*
%TO.C,U5*%
X117228000Y-135488000D02*
X118878000Y-135488000D01*
X122528000Y-135488000D02*
X122528000Y-130288000D01*
X120878000Y-135488000D02*
X122528000Y-135488000D01*
X117228000Y-130288000D02*
X117228000Y-135488000D01*
X122528000Y-130288000D02*
X117228000Y-130288000D01*
X120878000Y-135488000D02*
G75*
G03*
X118878000Y-135488000I-1000000J0D01*
G01*
%TO.C,U10*%
X120878000Y-90992000D02*
X122528000Y-90992000D01*
X117228000Y-85792000D02*
X117228000Y-90992000D01*
X117228000Y-90992000D02*
X118878000Y-90992000D01*
X122528000Y-90992000D02*
X122528000Y-85792000D01*
X122528000Y-85792000D02*
X117228000Y-85792000D01*
X120878000Y-90992000D02*
G75*
G03*
X118878000Y-90992000I-1000000J0D01*
G01*
%TO.C,R10*%
X128751064Y-72617000D02*
X128296936Y-72617000D01*
X128751064Y-71147000D02*
X128296936Y-71147000D01*
%TO.C,R9*%
X128751064Y-80037000D02*
X128296936Y-80037000D01*
X128751064Y-81507000D02*
X128296936Y-81507000D01*
%TO.C,R4*%
X128751064Y-124487000D02*
X128296936Y-124487000D01*
X128751064Y-125957000D02*
X128296936Y-125957000D01*
%TO.C,U3*%
X152320000Y-88210000D02*
X156180000Y-88210000D01*
X152320000Y-70090000D02*
X156180000Y-70090000D01*
X152320000Y-70090000D02*
X148460000Y-70090000D01*
X156180000Y-87965000D02*
X157995000Y-87965000D01*
X156180000Y-88210000D02*
X156180000Y-87965000D01*
X152320000Y-88210000D02*
X148460000Y-88210000D01*
X148460000Y-70090000D02*
X148460000Y-70335000D01*
X156180000Y-70090000D02*
X156180000Y-70335000D01*
X148460000Y-88210000D02*
X148460000Y-87965000D01*
%TO.C,J1*%
X96848000Y-51140500D02*
X96848000Y-41940500D01*
X111548000Y-48440500D02*
X111548000Y-51140500D01*
X111548000Y-41940500D02*
X111548000Y-44540500D01*
X111748000Y-42790500D02*
X111748000Y-41740500D01*
X110698000Y-41740500D02*
X111748000Y-41740500D01*
X105648000Y-51140500D02*
X96848000Y-51140500D01*
X111548000Y-51140500D02*
X109648000Y-51140500D01*
X96848000Y-41940500D02*
X111548000Y-41940500D01*
%TO.C,R7*%
X128751064Y-97817000D02*
X128296936Y-97817000D01*
X128751064Y-99287000D02*
X128296936Y-99287000D01*
%TO.C,J10*%
X164070000Y-140562500D02*
X176290000Y-140562500D01*
X164070000Y-123942500D02*
X176290000Y-123942500D01*
X171930000Y-123242500D02*
X170930000Y-123242500D01*
X176290000Y-123942500D02*
X176290000Y-127692500D01*
X176290000Y-140562500D02*
X176290000Y-132592500D01*
X164070000Y-140562500D02*
X164070000Y-132592500D01*
X171430000Y-123742500D02*
X171930000Y-123242500D01*
X170930000Y-123242500D02*
X171430000Y-123742500D01*
X164070000Y-123942500D02*
X164070000Y-127692500D01*
%TO.C,U1*%
X103479000Y-66080000D02*
X103479000Y-55840000D01*
X98838000Y-66080000D02*
X98838000Y-55840000D01*
X98838000Y-62810000D02*
X100348000Y-62810000D01*
X100348000Y-66080000D02*
X100348000Y-55840000D01*
X98838000Y-55840000D02*
X103479000Y-55840000D01*
X98838000Y-66080000D02*
X103479000Y-66080000D01*
X98838000Y-59109000D02*
X100348000Y-59109000D01*
%TD*%
%LPC*%
D12*
%TO.C,C3*%
X117094000Y-61198000D03*
X117094000Y-59198000D03*
%TD*%
%TO.C,C2*%
X108966000Y-63754000D03*
X108966000Y-65754000D03*
%TD*%
%TO.C,C1*%
X108966000Y-55896000D03*
X108966000Y-57896000D03*
%TD*%
D13*
%TO.C,J11*%
X151110000Y-125292500D03*
D12*
X148610000Y-125292500D03*
X148610000Y-127292500D03*
X151110000Y-127292500D03*
D14*
X143860000Y-130152500D03*
X155860000Y-130152500D03*
%TD*%
D13*
%TO.C,J6*%
X204032500Y-69870000D03*
D12*
X204032500Y-72370000D03*
X206032500Y-72370000D03*
X206032500Y-69870000D03*
D14*
X208892500Y-65120000D03*
X208892500Y-77120000D03*
%TD*%
D13*
%TO.C,U11*%
X123688000Y-80772000D03*
D15*
X123688000Y-78232000D03*
X116068000Y-78232000D03*
X116068000Y-80772000D03*
%TD*%
D16*
%TO.C,JU1*%
X173228000Y-81788000D03*
%TD*%
%TO.C,JU4*%
X174752000Y-75438000D03*
%TD*%
D17*
%TO.C,R1*%
X137144000Y-58420000D03*
X135144000Y-58420000D03*
%TD*%
D18*
%TO.C,H2*%
X208280000Y-132080000D03*
%TD*%
D19*
%TO.C,C4*%
X172310000Y-87202500D03*
X172310000Y-85477500D03*
%TD*%
D16*
%TO.C,J2*%
X124973000Y-54926000D03*
D20*
X124973000Y-52386000D03*
X127513000Y-54926000D03*
X127513000Y-52386000D03*
X130053000Y-54926000D03*
X130053000Y-52386000D03*
X132593000Y-54926000D03*
X132593000Y-52386000D03*
X135133000Y-54926000D03*
X135133000Y-52386000D03*
%TD*%
D16*
%TO.C,JU2*%
X162990000Y-83058000D03*
%TD*%
D13*
%TO.C,U9*%
X123688000Y-98552000D03*
D15*
X123688000Y-96012000D03*
X116068000Y-96012000D03*
X116068000Y-98552000D03*
%TD*%
D13*
%TO.C,J9*%
X191750000Y-125292500D03*
D12*
X189250000Y-125292500D03*
X189250000Y-127292500D03*
X191750000Y-127292500D03*
D14*
X184500000Y-130152500D03*
X196500000Y-130152500D03*
%TD*%
D13*
%TO.C,J4*%
X168930000Y-57587500D03*
D12*
X171430000Y-57587500D03*
X171430000Y-55587500D03*
X168930000Y-55587500D03*
D14*
X176180000Y-52727500D03*
X164180000Y-52727500D03*
%TD*%
D21*
%TO.C,R2*%
X130572000Y-58420000D03*
X132572000Y-58420000D03*
%TD*%
D22*
%TO.C,JP1*%
X145004000Y-65278000D03*
X146304000Y-65278000D03*
X147604000Y-65278000D03*
%TD*%
D18*
%TO.C,H3*%
X117602000Y-50038000D03*
%TD*%
D23*
%TO.C,U2*%
X102037000Y-79248000D03*
D24*
X102037000Y-76708000D03*
X102037000Y-74168000D03*
%TD*%
D13*
%TO.C,U8*%
X123688000Y-107442000D03*
D15*
X123688000Y-104902000D03*
X116068000Y-104902000D03*
X116068000Y-107442000D03*
%TD*%
D17*
%TO.C,R8*%
X129524000Y-89662000D03*
X127524000Y-89662000D03*
%TD*%
D16*
%TO.C,JU3*%
X180848000Y-102362000D03*
%TD*%
D17*
%TO.C,R5*%
X129524000Y-116337000D03*
X127524000Y-116337000D03*
%TD*%
%TO.C,R6*%
X129524000Y-107442000D03*
X127524000Y-107442000D03*
%TD*%
D16*
%TO.C,J12*%
X107442000Y-125476000D03*
D20*
X107442000Y-122936000D03*
X107442000Y-120396000D03*
X107442000Y-117856000D03*
X107442000Y-115316000D03*
X107442000Y-112776000D03*
X107442000Y-110236000D03*
X107442000Y-107696000D03*
X107442000Y-105156000D03*
X107442000Y-102616000D03*
X107442000Y-100076000D03*
X107442000Y-97536000D03*
X107442000Y-94996000D03*
X107442000Y-92456000D03*
X107442000Y-89916000D03*
X107442000Y-87376000D03*
%TD*%
D22*
%TO.C,JP3*%
X135352000Y-65278000D03*
X136652000Y-65278000D03*
X137952000Y-65278000D03*
%TD*%
D13*
%TO.C,J7*%
X204032500Y-90190000D03*
D12*
X204032500Y-92690000D03*
X206032500Y-92690000D03*
X206032500Y-90190000D03*
D14*
X208892500Y-85440000D03*
X208892500Y-97440000D03*
%TD*%
D25*
%TO.C,J3*%
X153360000Y-56160000D03*
D12*
X150860000Y-56160000D03*
X148860000Y-56160000D03*
X146360000Y-56160000D03*
D26*
X156430000Y-53450000D03*
X143290000Y-53450000D03*
%TD*%
D17*
%TO.C,R3*%
X129524000Y-134158000D03*
X127524000Y-134158000D03*
%TD*%
D13*
%TO.C,J8*%
X204032500Y-110510000D03*
D12*
X204032500Y-113010000D03*
X206032500Y-113010000D03*
X206032500Y-110510000D03*
D14*
X208892500Y-105760000D03*
X208892500Y-117760000D03*
%TD*%
D13*
%TO.C,U6*%
X123688000Y-125222000D03*
D15*
X123688000Y-122682000D03*
X116068000Y-122682000D03*
X116068000Y-125222000D03*
%TD*%
D27*
%TO.C,U4*%
X171930000Y-89002500D03*
D28*
X171430000Y-89002500D03*
X170930000Y-89002500D03*
X170430000Y-89002500D03*
X169930000Y-89002500D03*
X169430000Y-89002500D03*
X168930000Y-89002500D03*
D29*
X168430000Y-89002500D03*
D30*
X167742500Y-89690000D03*
D31*
X167742500Y-90190000D03*
X167742500Y-90690000D03*
X167742500Y-91190000D03*
X167742500Y-91690000D03*
X167742500Y-92190000D03*
X167742500Y-92690000D03*
D32*
X167742500Y-93190000D03*
D33*
X168430000Y-93877500D03*
D28*
X168930000Y-93877500D03*
X169430000Y-93877500D03*
X169930000Y-93877500D03*
X170430000Y-93877500D03*
X170930000Y-93877500D03*
X171430000Y-93877500D03*
D34*
X171930000Y-93877500D03*
D35*
X172617500Y-93190000D03*
D31*
X172617500Y-92690000D03*
X172617500Y-92190000D03*
X172617500Y-91690000D03*
X172617500Y-91190000D03*
X172617500Y-90690000D03*
X172617500Y-90190000D03*
D36*
X172617500Y-89690000D03*
D37*
X170180000Y-91440000D03*
%TD*%
D13*
%TO.C,U7*%
X123688000Y-116337000D03*
D15*
X123688000Y-113797000D03*
X116068000Y-113797000D03*
X116068000Y-116337000D03*
%TD*%
D18*
%TO.C,H4*%
X106680000Y-132080000D03*
%TD*%
D22*
%TO.C,JP2*%
X140178000Y-65278000D03*
X141478000Y-65278000D03*
X142778000Y-65278000D03*
%TD*%
D18*
%TO.C,H1*%
X208280000Y-50800000D03*
%TD*%
D13*
%TO.C,J5*%
X189250000Y-57587500D03*
D12*
X191750000Y-57587500D03*
X191750000Y-55587500D03*
X189250000Y-55587500D03*
D14*
X184500000Y-52727500D03*
X196500000Y-52727500D03*
%TD*%
D38*
%TO.C,C5*%
X170710000Y-96470000D03*
X170710000Y-98195000D03*
%TD*%
D13*
%TO.C,U12*%
X123688000Y-71882000D03*
D15*
X123688000Y-69342000D03*
X116068000Y-69342000D03*
X116068000Y-71882000D03*
%TD*%
D13*
%TO.C,U5*%
X123688000Y-134158000D03*
D15*
X123688000Y-131618000D03*
X116068000Y-131618000D03*
X116068000Y-134158000D03*
%TD*%
D13*
%TO.C,U10*%
X123688000Y-89662000D03*
D15*
X123688000Y-87122000D03*
X116068000Y-87122000D03*
X116068000Y-89662000D03*
%TD*%
D17*
%TO.C,R10*%
X129524000Y-71882000D03*
X127524000Y-71882000D03*
%TD*%
%TO.C,R9*%
X129524000Y-80772000D03*
X127524000Y-80772000D03*
%TD*%
%TO.C,R4*%
X129524000Y-125222000D03*
X127524000Y-125222000D03*
%TD*%
D39*
%TO.C,U3*%
X156970000Y-87405000D03*
X156970000Y-86135000D03*
X156970000Y-84865000D03*
X156970000Y-83595000D03*
X156970000Y-82325000D03*
X156970000Y-81055000D03*
X156970000Y-79785000D03*
X156970000Y-78515000D03*
X156970000Y-77245000D03*
X156970000Y-75975000D03*
X156970000Y-74705000D03*
X156970000Y-73435000D03*
X156970000Y-72165000D03*
X156970000Y-70895000D03*
X147670000Y-70895000D03*
X147670000Y-72165000D03*
X147670000Y-73435000D03*
X147670000Y-74705000D03*
X147670000Y-75975000D03*
X147670000Y-77245000D03*
X147670000Y-78515000D03*
X147670000Y-79785000D03*
X147670000Y-81055000D03*
X147670000Y-82325000D03*
X147670000Y-83595000D03*
X147670000Y-84865000D03*
X147670000Y-86135000D03*
X147670000Y-87405000D03*
%TD*%
D40*
%TO.C,J1*%
X110648000Y-46540500D03*
D41*
X104648000Y-46540500D03*
D42*
X107648000Y-51240500D03*
%TD*%
D17*
%TO.C,R7*%
X129524000Y-98552000D03*
X127524000Y-98552000D03*
%TD*%
D13*
%TO.C,J10*%
X171430000Y-125292500D03*
D12*
X168930000Y-125292500D03*
X168930000Y-127292500D03*
X171430000Y-127292500D03*
D14*
X176180000Y-130152500D03*
X164180000Y-130152500D03*
%TD*%
D23*
%TO.C,U1*%
X102108000Y-63500000D03*
D24*
X102108000Y-60960000D03*
X102108000Y-58420000D03*
%TD*%
D43*
X148844000Y-67564000D03*
X173228000Y-84074000D03*
X159512000Y-75946000D03*
X170170000Y-91450000D03*
X137922000Y-67310000D03*
X144018000Y-67564000D03*
X171958000Y-99568000D03*
M02*
